<?xml version="1.0" encoding="UTF-8" standalone="no"?>
<!-- Created with Inkscape (http://www.inkscape.org/) -->

<svg
   width="210mm"
   height="297mm"
   viewBox="0 0 210 297"
   version="1.1"
   id="svg37"
   inkscape:version="1.2.1 (9c6d41e410, 2022-07-14)"
   sodipodi:docname="slimak.svg"
   xmlns:inkscape="http://www.inkscape.org/namespaces/inkscape"
   xmlns:sodipodi="http://sodipodi.sourceforge.net/DTD/sodipodi-0.dtd"
   xmlns="http://www.w3.org/2000/svg"
   xmlns:svg="http://www.w3.org/2000/svg">
  <sodipodi:namedview
     id="namedview39"
     pagecolor="#505050"
     bordercolor="#ffffff"
     borderopacity="1"
     inkscape:showpageshadow="0"
     inkscape:pageopacity="0"
     inkscape:pagecheckerboard="1"
     inkscape:deskcolor="#505050"
     inkscape:document-units="mm"
     showgrid="false"
     inkscape:zoom="0.7071068"
     inkscape:cx="421.43563"
     inkscape:cy="492.14631"
     inkscape:window-width="1920"
     inkscape:window-height="1017"
     inkscape:window-x="-8"
     inkscape:window-y="-8"
     inkscape:window-maximized="1"
     inkscape:current-layer="layer1" />
  <defs
     id="defs34" />
  <g
     inkscape:label="Warstwa 1"
     inkscape:groupmode="layer"
     id="layer1">
    <path
       sodipodi:type="spiral"
       style="fill:none;fill-rule:evenodd;stroke:#000000;stroke-width:0.264583"
       id="path357"
       sodipodi:cx="122.9123"
       sodipodi:cy="80.911827"
       sodipodi:expansion="1"
       sodipodi:revolution="3"
       sodipodi:radius="54.046761"
       sodipodi:argument="-18.233494"
       sodipodi:t0="0.087599292"
       d="m 119.87507,84.543673 c -4.35229,-0.666395 -5.50846,-6.064449 -4.0496,-9.558403 2.57021,-6.15562 10.42704,-7.541384 15.90271,-4.615251 7.98375,4.266422 9.62518,14.842998 5.18091,22.247013 -5.90202,9.832588 -19.27795,11.730618 -28.59132,5.746564 -11.692675,-7.512812 -13.847264,-23.721975 -6.31222,-34.935622 9.11118,-13.559257 28.17114,-15.970414 41.27993,-6.877878 15.42986,10.702483 18.09766,32.62352 7.44353,47.624234 -12.28938,17.30311 -37.07805,20.22764 -53.968536,8.00919 C 77.58228,98.310157 74.400924,70.649428 88.185627,51.870677 103.64093,30.816083 134.17687,27.377822 154.84277,42.730173 c 21.58316,16.033759 26.37371,46.925678 12.18034,69.411257"
       transform="translate(-16.5824,58.003525)" />
    <path
       style="fill:#1a1a1a;stroke-width:0.264583"
       d="m 150.68318,170.0779 c -21.49406,-2.22353 -21.49406,-2.22353 -21.49406,-2.22353 z"
       id="path543" />
    <path
       style="fill:#1a1a1a;stroke-width:0.264583"
       d="m 150.42026,170.18823 -21.85149,-1.77605 0.37352,-0.42581 21.76866,1.85322 z"
       id="path547" />
    <path
       style="fill:#c87137;stroke-width:0.0906592"
       d="m 101.04809,177.38816 c -2.882954,-0.22705 -5.154103,-0.58244 -7.434062,-1.16327 -1.989032,-0.50672 -3.012242,-0.8362 -4.850276,-1.56182 -8.023709,-3.16759 -14.829242,-8.96192 -19.357176,-16.48098 -8.465629,-14.05798 -8.065838,-32.31964 1.012937,-46.2689 3.050651,-4.68723 7.410098,-9.13345 12.102427,-12.34333 2.226358,-1.522981 5.189331,-3.154526 7.718698,-4.250256 l 1.068919,-0.463058 h 18.028643 18.02864 l 0.98348,0.416131 c 10.49954,4.442535 19.23471,12.713643 24.4731,23.172963 2.81017,5.61098 4.4983,11.45889 5.25525,18.20485 0.19707,1.75636 0.27773,6.94948 0.13838,8.90906 -0.50926,7.16089 -2.35935,13.94927 -5.4909,20.14726 -0.96963,1.91911 -2.19715,4.03259 -2.34558,4.03851 -0.0575,0.002 -4.82434,-0.39515 -10.59308,-0.88321 l -10.4886,-0.88737 1.33646,-1.36061 c 2.08875,-2.12651 3.67129,-4.15925 5.09367,-6.54274 2.60796,-4.37019 4.15868,-8.98865 4.8199,-14.35496 0.18658,-1.51425 0.15689,-6.6277 -0.0474,-8.15934 -0.84952,-6.36983 -3.11454,-11.90612 -6.8237,-16.67884 -0.92477,-1.18992 -3.05277,-3.41209 -4.25338,-4.44156 -4.62186,-3.96309 -9.93391,-6.33459 -16.18269,-7.22457 -1.61541,-0.23007 -6.35444,-0.23241 -7.96813,-0.004 -5.494228,0.77791 -10.363894,2.81872 -14.424733,6.04521 -1.084045,0.86132 -3.143771,2.89067 -3.958201,3.89984 -3.241921,4.01711 -5.120145,8.35603 -5.847421,13.50825 -0.161761,1.14594 -0.164325,5.55117 -0.0039,6.66346 0.424511,2.94292 1.117251,5.28626 2.27807,7.70604 1.847522,3.85125 4.526674,6.95328 7.990666,9.25191 2.835555,1.88162 5.949677,3.03887 9.422629,3.50158 1.28162,0.17076 4.43492,0.14439 5.74351,-0.048 7.61143,-1.11918 13.62244,-6.04378 15.68397,-12.84932 1.78048,-5.87774 0.36492,-12.22239 -3.60879,-16.17483 -0.55144,-0.54849 -1.33991,-1.2366 -1.75215,-1.52914 -0.95094,-0.67482 -2.56026,-1.49259 -3.55554,-1.80674 -1.5579,-0.49174 -2.07838,-0.56256 -4.125,-0.56131 -1.7708,10e-4 -1.97211,0.0184 -2.8806,0.24809 -3.27742,0.82853 -5.63708,2.6738 -6.961126,5.44364 -0.594352,1.24335 -0.746332,1.97394 -0.748832,3.59969 -0.0019,1.16173 0.03184,1.5309 0.19408,2.1305 0.428516,1.58374 1.386948,2.99969 2.524718,3.72993 0.44816,0.28763 1.6717,0.7577 1.97222,0.7577 0.08,0 0.14267,-0.0761 0.14267,-0.17335 0,-0.13223 -0.088,-0.18821 -0.37082,-0.236 -0.20396,-0.0345 -0.7008,-0.2278 -1.10409,-0.42966 -1.03117,-0.51611 -1.7552,-1.26674 -2.280897,-2.36467 -0.493276,-1.03023 -0.677056,-1.74856 -0.74771,-2.92256 -0.145108,-2.41109 0.734356,-4.66509 2.521817,-6.4632 1.97804,-1.98984 4.6499,-3.02941 7.7839,-3.02856 2.64551,7.9e-4 4.87275,0.68705 7.16692,2.20854 1.02859,0.68216 2.81289,2.43615 3.50197,3.44248 3.23689,4.72714 3.61774,11.12185 0.98507,16.53978 -1.50563,3.09851 -4.05937,5.80678 -7.18815,7.62309 -4.61633,2.67986 -10.56547,3.38263 -15.93359,1.88222 -3.901919,-1.09059 -7.016414,-2.96593 -9.928548,-5.97829 -3.448106,-3.56679 -5.548447,-7.99552 -6.359221,-13.40888 -0.166457,-1.11142 -0.166587,-5.68671 -1.8e-4,-6.79945 0.61331,-4.10136 1.955787,-7.71315 4.040238,-10.86981 4.617574,-6.9928 12.157297,-11.42641 20.904771,-12.29269 1.23654,-0.12246 4.58667,-0.12214 5.80248,5.3e-4 9.67273,0.97612 18.03911,6.20085 23.22529,14.50397 2.63424,4.21747 4.27784,9.11421 4.83833,14.41484 0.162,1.532 0.18539,4.98275 0.0443,6.52747 -0.86734,9.49274 -5.25253,17.83776 -12.60514,23.98751 -6.61315,5.53128 -15.46462,8.62142 -24.47348,8.54395 -0.97482,-0.008 -1.93558,-0.0281 -2.13503,-0.0438 z"
       id="path701" />
    <path
       style="fill:#c87137;stroke-width:0.0906592"
       d="m 91.846169,94.66194 c 0.224383,-0.09999 1.183106,-0.440791 2.130496,-0.757333 9.563985,-3.195537 20.249025,-3.293165 29.872255,-0.272944 1.21772,0.382177 3.35439,1.140439 3.35439,1.190405 0,0.01897 -8.04714,0.0316 -17.88255,0.02808 l -17.882557,-0.0064 z"
       id="path772" />
    <path
       style="fill:#c87137;stroke-width:0.0906592"
       d="m 105.11178,94.78858 c 1.83613,-0.01371 4.81429,-0.01371 6.61813,1.6e-5 1.80385,0.01373 0.30156,0.02495 -3.33841,0.02495 -3.63997,-8e-6 -5.11585,-0.01125 -3.27972,-0.02495 z"
       id="path774" />
    <path
       style="fill:#c87137;stroke-width:0.00103353"
       d="M 109.22077,94.8533 V 94.85 l 0.84664,7.94e-4 c 0.46564,2.64e-4 1.13142,7.93e-4 1.47949,7.93e-4 h 0.63287 v 0.0026 0.0026 h -1.4795 -1.4795 z"
       id="path776" />
    <path
       style="fill:#c87137;stroke-width:0.00103353"
       d="m 109.6515,94.849596 -0.43073,-2.6e-4 V 94.55323 94.257125 h 1.4795 1.4795 v 0.296624 0.296622 l -1.04878,-2.57e-4 c -0.57682,-1.4e-4 -1.2426,-2.64e-4 -1.47949,-5.29e-4 z"
       id="path778" />
    <path
       style="fill:#c87137;stroke-width:0.00103353"
       d="m 110.36366,94.850633 c 0.008,-1.75e-4 0.0212,-1.75e-4 0.0289,0 0.008,1.74e-4 10e-4,2.64e-4 -0.0148,2.64e-4 -0.0159,0 -0.0223,-1.43e-4 -0.0142,-2.64e-4 z"
       id="path780" />
    <path
       style="fill:#c87137;stroke-width:0.00103353"
       d="m 109.6515,94.849596 -0.43073,-2.6e-4 V 94.55323 94.257125 h 1.4795 1.4795 v 0.296624 0.296622 l -1.04878,-2.57e-4 c -0.57682,-1.4e-4 -1.2426,-2.64e-4 -1.47949,-5.29e-4 z"
       id="path782" />
    <path
       style="fill:#000000;stroke-width:0.264583"
       d="m 150.54321,170.3256 17.2434,1.58534 4.82483,4.88943 1.5622,8.42753 -2.58627,6.75776 -7.03933,4.31721 -18.27918,4.06584 -15.06851,-0.0936 -15.54972,-0.73382 -15.16208,-0.67182 H 83.307504 l -9.292997,-0.28946 -21.364125,-1.10178 -10.880371,-3.93704 -4.220188,-6.52259 -1.158748,-6.52036 0.06692,-4.73863 0.633119,-15.32991 1.635721,-6.64468 3.723769,-1.93372 4.404858,-0.90525 3.934452,-0.37479 3.428174,2.95384 2.560786,5.59514 1.298098,5.50665 2.379885,1.92478 6.405417,0.30528 6.048351,-1.63146 0.860399,-0.479 0.33044,1.46373 -3.577635,1.68657 -5.104688,0.37967 H 62.31955 l -4.830609,-1.02875 -1.575191,-2.694 -1.120812,-3.64289 -0.680704,-3.17795 -1.244886,-3.56108 -2.206958,-1.15163 -3.05353,-0.72365 -4.489643,1.32454 -1.822492,0.7862 -0.985761,1.25947 -1.085591,2.38937 -0.37991,2.27903 -0.665779,2.5645 -0.487698,3.0374 -0.18895,3.34014 0.29369,2.80682 0.46772,3.35202 v 1.80189 l -0.196638,2.57206 0.365276,4.00358 1.325549,1.96475 1.193215,2.81185 1.862638,3.13275 2.213416,1.39682 5.465983,1.70071 6.770425,1.12832 8.093022,0.62884 7.135418,-0.15243 9.698337,0.69842 h 6.084373 l 5.16649,0.0935 8.6856,0.32305 7.9385,-0.0268 6.35436,0.15473 7.76278,0.25502 8.13266,0.36386 h 4.93421 l 10.57263,0.008 7.63412,-1.60619 8.22816,-2.46396 3.37069,-1.91614 3.78168,-3.63285 0.77658,-5.53607 -0.64039,-5.15231 -4.08923,-2.81265 -2.87138,-1.82125 -6.59985,-0.83522 -5.59451,-0.49793 h -3.6747 l -0.0584,-1.946 z"
       id="path901" />
    <path
       style="fill:#000000;stroke-width:0.264583"
       d="m 150.51116,170.09184 -0.0234,0.58396 -2.48156,-0.14873 0.0136,-0.70552 z"
       id="path957" />
    <path
       style="fill:#000000;stroke-width:0.264583"
       d="m 73.771069,164.80811 0.152683,-0.16469 1.026459,1.14326 -0.876832,0.45736 z"
       id="path959" />
    <path
       style="fill:#806600;stroke-width:0.0935442"
       d="m 128.55163,198.08101 c -8.00709,-0.38466 -18.31884,-0.656 -22.35709,-0.58828 -2.29177,0.0384 -4.40024,2.6e-4 -8.185132,-0.14762 -2.803991,-0.10966 -7.581768,-0.22284 -10.617282,-0.25151 -5.03981,-0.0476 -5.917182,-0.0804 -10.102787,-0.37726 -4.48796,-0.31833 -4.66376,-0.32383 -8.418991,-0.26366 -3.724116,0.0597 -3.943805,0.053 -7.57709,-0.22889 -3.308522,-0.25673 -4.142531,-0.35608 -7.202913,-0.85806 -3.412612,-0.55975 -3.499834,-0.57961 -6.220698,-1.4165 -2.732111,-0.84035 -2.770757,-0.8558 -3.885229,-1.55304 l -1.12567,-0.70425 -0.947169,-1.59705 c -0.53789,-0.90694 -1.20651,-2.20334 -1.547357,-3.00019 -0.378717,-0.88539 -0.840586,-1.76649 -1.251654,-2.38777 l -0.651459,-0.98461 -0.174096,-2.00881 c -0.14941,-1.72397 -0.158838,-2.19496 -0.06649,-3.32157 0.158909,-1.93868 0.13593,-2.59633 -0.168222,-4.8144 -0.460465,-3.35799 -0.515371,-4.21724 -0.39452,-6.17392 0.124606,-2.01747 0.416584,-3.86823 0.938609,-5.94957 0.205156,-0.81796 0.443135,-1.91967 0.528844,-2.44822 0.194969,-1.20236 0.971497,-2.97892 1.72397,-3.94414 0.46501,-0.59648 0.54253,-0.65236 1.414036,-1.01921 0.50713,-0.21347 1.923415,-0.68289 3.147301,-1.04315 l 2.225246,-0.65501 1.513195,0.36155 c 1.292608,0.30885 1.660789,0.43975 2.525696,0.89797 0.556877,0.29504 1.059101,0.58456 1.116052,0.64339 0.215556,0.22265 1.351053,3.80904 1.633197,5.15834 0.161374,0.77175 0.558982,2.26612 0.883573,3.32083 0.549532,1.78563 0.643853,2.00872 1.369994,3.2403 l 0.77983,1.32263 2.479236,0.5257 c 2.383655,0.50544 2.533324,0.52568 3.882398,0.52511 0.771739,-2.6e-4 2.601079,-0.0909 4.065196,-0.20138 l 2.662028,-0.2008 1.687782,-0.78863 c 0.928281,-0.43375 1.906136,-0.89819 2.173013,-1.0321 l 0.485232,-0.24346 1.120127,1.07994 c 5.167929,4.9825 12.090964,8.58003 19.31706,10.03803 4.821584,0.97285 10.049724,1.05333 14.887554,0.22918 5.81405,-0.99046 11.65293,-3.47178 16.20471,-6.88646 0.65699,-0.49286 1.4471,-1.11497 1.7558,-1.38246 l 0.56126,-0.48634 9.5832,0.78131 c 5.27076,0.42971 9.60042,0.79851 9.62146,0.81955 0.0211,0.021 0.061,0.48287 0.0887,1.02629 l 0.0504,0.98802 h 1.98416 c 2.39744,0 5.72087,0.28134 10.56894,0.89469 l 3.36587,0.42583 1.59198,1.01857 c 0.87561,0.56022 2.43389,1.5998 3.46288,2.31017 l 1.87089,1.29159 0.31626,2.56385 0.31627,2.56385 -0.38071,2.73528 -0.3807,2.73529 -1.24519,1.20716 c -2.47761,2.40198 -2.5314,2.4449 -4.33214,3.45714 l -1.68379,0.94651 -4.11596,1.2246 c -3.63071,1.08022 -4.56382,1.31851 -7.91497,2.02124 l -3.79902,0.79666 -7.84725,-0.013 c -6.00068,-0.01 -8.66169,-0.0521 -11.30838,-0.17927 z"
       id="path1086" />
    <ellipse
       style="fill:#f9f9f9;stroke-width:0.264583"
       id="path1623"
       cx="42.992771"
       cy="158.82024"
       rx="1.243631"
       ry="1.1568874" />
    <ellipse
       style="fill:#f9f9f9;stroke-width:0.264583"
       id="path1625"
       cx="50.430931"
       cy="159.08031"
       rx="1.451625"
       ry="1.2270684" />
    <ellipse
       style="fill:#0000ff;stroke-width:0.264583"
       id="path1681"
       cx="42.933949"
       cy="158.77257"
       rx="0.25420308"
       ry="0.20026258" />
    <ellipse
       style="fill:#000000;stroke-width:0.264583"
       id="path1683"
       cx="50.447746"
       cy="159.03491"
       rx="0.25093651"
       ry="0.20419717" />
    <path
       style="fill:#000000;stroke-width:0.264583"
       d="m 43.526453,152.74412 c 0.01921,-0.46993 0.09262,-0.9843 0.02979,-1.44922 -0.02326,-0.17202 -0.220654,-0.66168 -0.282953,-0.88793 -0.06235,-0.22643 0.0098,-0.53642 -0.188854,-0.70759 -0.119536,-0.10299 -0.265785,-0.17237 -0.383636,-0.27728 -0.141157,-0.12566 -0.195384,-0.26057 -0.375864,-0.33374 -0.105698,-0.0428 -0.22416,-0.0489 -0.329126,-0.0935 -0.165833,-0.0705 -0.307308,-0.20677 -0.498652,-0.21149 -0.0603,-0.002 0,0.12063 0,0.18095 0,0.40784 0.0026,0.37068 -0.09684,0.76358 -0.02397,0.0948 -0.01969,0.19592 -0.04895,0.28922 -0.03807,0.12137 -0.124814,0.22585 -0.151595,0.3502 -0.07447,0.34577 0.03884,0.98324 0,1.37417 -0.0109,0.10975 -0.06027,0.19306 -0.09355,0.29177 -0.02895,0.0859 0.0222,0.18405 0,0.27193 -0.196529,0.77771 -0.03502,-0.46349 -0.16203,0.44989 -0.0231,0.16613 0,0.36129 0,0.52832"
       id="path1851" />
    <path
       style="fill:#000000;stroke-width:0.264583"
       d="m 50.802122,149.52225 -2.749921,1.26417"
       id="path1853" />
    <path
       style="fill:#000000;stroke-width:0.264583"
       d="m 51.114984,150.08958 -0.399791,1.06474"
       id="path1855" />
    <path
       style="fill:#000000;stroke-width:0.264583"
       d="m 49.758875,151.57211 -1.311481,-0.30713"
       id="path1857" />
    <path
       style="fill:#000000;stroke-width:0.264583"
       d="m 47.583421,151.64258 1.248955,-4.64122"
       id="path1859" />
    <path
       style="fill:#000000;stroke-width:0.264583"
       id="path1861"
       d="m 53.069529,152.66428 c -0.06108,-0.32345 -0.08995,-0.6512 -0.11127,-0.97925 -0.03579,-0.37622 -0.04556,-0.74566 -0.03182,-1.1231 0.02103,-0.23488 0.01725,-0.4705 0.01376,-0.70596 0.0024,-0.16515 -0.02164,-0.29501 -0.130257,-0.42617 -0.0046,-0.006 -0.132553,-0.12583 -0.142499,-0.1352 -1.118097,-0.85324 -2.474627,-1.47907 -3.643453,-2.14204 -0.02726,-0.0154 -0.06206,-0.009 -0.09296,-0.014 -0.03165,-0.005 -0.06309,-0.0118 -0.09464,-0.0178 -0.105484,-10e-4 -0.207748,-0.0492 -0.312087,-0.0542 -0.151847,-0.007 -0.0033,0.0226 -0.145015,-0.0128 -0.01508,-0.007 -0.106172,-0.0526 -0.126889,-0.0482 -0.20588,0.0435 -0.292015,0.45613 -0.34603,0.62404 -0.09164,0.27435 -0.259673,0.5125 -0.371218,0.77751 -0.05392,0.1281 -0.08606,0.23385 -0.12921,0.36476 -0.04966,0.20105 -0.140708,0.41138 -0.123118,0.62325 0.0041,0.0491 0.01569,0.0972 0.02355,0.1458 0.03224,0.12555 0.0569,0.25387 0.09415,0.37815 0.04295,0.1433 0.04581,0.10155 0.07443,0.26111 0.0086,0.0479 0.01156,0.0967 0.01736,0.14501 0.0062,0.18813 -7.94e-4,0.37722 -0.02445,0.56396 0,0 3.476757,1.81922 3.476757,1.81922 v 0 c 0.007,-0.0755 0.01852,-0.1507 0.02162,-0.22648 0.0057,-0.13855 -0.0093,-0.2782 -0.0065,-0.41678 -0.0019,-0.15322 0.0078,-0.32051 -0.02334,-0.47171 -0.02453,-0.11908 -0.09102,-0.22961 -0.115257,-0.34918 -0.02138,-0.0808 -0.05075,-0.16631 -0.0539,-0.25072 -0.0047,-0.12486 0.01987,-0.24999 0.03593,-0.373 0.03272,-0.14794 0.03505,-0.18018 0.08752,-0.32583 0.09667,-0.26833 0.233252,-0.52175 0.364583,-0.77398 0.03485,-0.0572 0.06792,-0.11551 0.104547,-0.17158 0.01442,-0.0221 0.02506,-0.0749 0.04842,-0.0626 0.02334,0.0122 -0.02064,0.0491 -0.02439,0.0752 -0.01201,0.0834 0.100269,0.0508 0.146534,0.0617 0.127648,0.0119 0.03185,-0.003 0.145251,0.0302 0.08813,0.0261 0.181864,0.0323 0.263472,0.0797 0.02603,0.0135 0.05337,0.0248 0.07813,0.0406 0.02569,0.0164 0.09909,0.0706 0.07268,0.0554 -5.639292,-3.24272 -4.230989,-2.48318 -3.0763,-1.77967 0.112898,0.0611 0.05706,0.0271 0.16709,0.10274 0.01087,0.006 0.217725,0.0848 0.218868,0.0862 0.01551,0.0198 0.01156,0.0489 0.01736,0.0734 0.0527,0.22901 0.0448,0.46241 0.06193,0.69566 0.0033,0.0739 0.0141,0.30637 0.01561,0.37421 0.0057,0.25612 -0.01863,0.51184 -8.5e-5,0.76777 0.01222,0.17333 0.0109,0.16482 0.02622,0.33967 0.014,0.15986 0.03532,0.32278 0.0305,0.48366 -0.0011,0.0313 -0.0071,0.0621 -0.01069,0.0932 0,0 3.529113,1.79818 3.529113,1.79818 z" />
    <path
       style="fill:#000000;stroke-width:0.264583"
       id="path1863"
       d="m 45.137202,153.43198 c -0.05743,-0.3259 -0.06557,-0.65934 -0.03726,-0.98852 0.04829,-0.39716 0.02649,-0.79731 0.0016,-1.19518 -0.01749,-0.27181 -0.04183,-0.54335 -0.11053,-0.80736 -0.04494,-0.11885 -0.05173,-0.15945 -0.131413,-0.26712 -0.08257,-0.11157 -0.254347,-0.27017 -0.37565,-0.34077 -1.146916,-0.66753 -2.299822,-1.32472 -3.449736,-1.98707 -0.09414,-0.0253 -0.230576,-0.12431 -0.333081,-0.0598 -0.145492,0.0916 -0.302503,0.35139 -0.402,0.4907 -0.141936,0.20472 -0.32625,0.37755 -0.474263,0.57708 -0.151574,0.20433 -0.261948,0.43583 -0.376613,0.66159 -0.03263,0.0658 -0.06488,0.13188 -0.09788,0.19754 -0.08643,0.17193 -0.08055,0.16651 -0.178768,0.32105 -0.07552,0.11883 -0.16034,0.23065 -0.238268,0.34784 -0.153948,0.20593 -0.181962,0.45748 -0.224629,0.7027 -0.07582,0.43573 -0.006,-0.003 -0.07232,0.4265 -0.01532,0.36191 -0.08887,0.72237 -0.06224,1.08498 0.209457,1.42249 2.043581,1.3851 3.476101,2.19547 0.0093,0.005 0.202488,-0.0288 0.228994,-0.0317 0.07252,-0.009 0.145193,-0.014 0.218176,-0.0166 0.02585,-8e-4 0.05218,-0.007 0.07757,-0.002 0.0231,0.004 0.04261,0.02 0.06392,0.03 0.03381,0.002 0.06762,0.005 0.101428,0.007 0.04078,0.003 0.08155,0.006 0.122327,0.01 0,0 -3.131978,-2.32975 -3.131978,-2.32975 v 0 c -0.04286,-0.006 -0.08572,-0.0124 -0.128585,-0.0187 -0.04074,-0.007 -0.08098,-0.0183 -0.122222,-0.0199 -0.03261,-0.001 -0.06467,0.009 -0.09722,0.0114 -0.09557,0.007 -0.193243,8e-4 -0.287803,-0.0131 -0.04583,-0.013 -0.06262,-0.0125 -0.100258,-0.0448 -0.01405,-0.0121 -0.05218,-0.0514 -0.03617,-0.0421 1.109287,0.6429 2.219404,1.28459 3.318631,1.94454 0.02138,0.0128 -0.04996,0.006 -0.07469,0.003 -0.02487,-0.003 -0.04811,-0.0141 -0.07217,-0.0212 -0.01905,-0.0227 -0.04196,-0.0426 -0.05715,-0.068 -0.135324,-0.22638 -0.05329,-0.6381 -0.03764,-0.88917 0.03707,-0.33122 0.07412,-0.67548 0.269449,-0.9565 0.176382,-0.30273 0.342352,-0.61245 0.465264,-0.94139 0.08539,-0.18346 0.100852,-0.23015 0.207185,-0.4039 0.165619,-0.27064 0.377598,-0.50977 0.602845,-0.73178 0.0524,-0.0443 0.101023,-0.0935 0.15721,-0.13295 0.02846,-0.0199 0.06033,-0.0491 0.09467,-0.0437 0.02106,0.003 0.0062,0.0435 0.01778,0.0614 0.04732,0.0729 0.15888,0.0767 0.218864,0.13335 -1.06757,-0.61874 -2.136384,-1.23534 -3.20271,-1.85623 -0.04561,-0.0266 0.09429,0.0475 0.14042,0.0732 0.151518,0.0842 0.313875,0.16614 0.431524,0.29595 0.01699,0.028 0.03638,0.0547 0.05094,0.0841 0.03781,0.0763 0.04633,0.12596 0.06744,0.20944 0.03657,0.14467 0.06372,0.29082 0.08985,0.43773 0.03286,0.25511 0.07931,0.51377 0.06207,0.77212 -0.0041,0.0611 -0.01595,0.12135 -0.02381,0.18204 -0.0072,0.0557 -0.01421,0.11138 -0.02132,0.16707 -0.01894,0.17919 -0.02858,0.35522 -0.02593,0.53558 0.0016,0.10198 0.01236,0.22856 0.0019,0.33149 -0.0041,0.0405 -0.01619,0.0798 -0.02426,0.11975 0,0 3.522565,1.79483 3.522565,1.79483 z" />
    <ellipse
       style="fill:#0000ff;stroke-width:0.264583"
       id="path1881"
       cx="43.006706"
       cy="158.92978"
       rx="1.5233619"
       ry="1.4319847" />
    <ellipse
       style="fill:#0000ff;stroke-width:0.264583"
       id="path1883"
       cx="42.702206"
       cy="159.15533"
       rx="2.6341929"
       ry="2.5061746" />
    <path
       style="fill:#0000ff;stroke-width:0.264583"
       id="path1927"
       sodipodi:type="arc"
       sodipodi:cx="50.565018"
       sodipodi:cy="159.79616"
       sodipodi:rx="2.7774606"
       sodipodi:ry="2.4539883"
       sodipodi:start="0"
       sodipodi:end="6.2690214"
       sodipodi:arc-type="slice"
       d="m 53.342478,159.79616 a 2.7774606,2.4539883 0 0 1 -2.767625,2.45397 2.7774606,2.4539883 0 0 1 -2.787226,-2.43659 2.7774606,2.4539883 0 0 1 2.747886,-2.47123 2.7774606,2.4539883 0 0 1 2.806687,2.41909 l -2.777182,0.0348 z" />
    <path
       style="fill:#6c5353;fill-opacity:0.476923;stroke-width:1.41421"
       d="m 458.20518,747.24107 c -17.8898,-0.62199 -62.75572,-1.83722 -99.70205,-2.70053 -137.65568,-3.21654 -151.60328,-4.1805 -177.4838,-12.26652 -15.90758,-4.97011 -18.81892,-7.62798 -27.86446,-25.43849 l -7.76294,-15.28512 -1.07369,-25.45584 c -1.42624,-33.81442 -1.23632,-38.54632 2.22013,-55.31414 3.58642,-17.39835 7.66153,-25.51 12.46899,-24.81999 2.51425,0.36087 3.11321,-0.0542 2.47564,-1.71575 -0.63484,-1.65435 0.44356,-2.42316 4.39788,-3.13532 2.88143,-0.51893 5.87535,-1.40502 6.65317,-1.96907 3.18751,-2.31151 8.35776,-2.52372 14.80926,-0.60783 10.92318,3.24384 12.25981,5.09241 17.79572,24.61171 2.75469,9.71288 6.35125,20.3483 7.99234,23.63427 2.72103,5.44834 3.68023,6.13492 10.89173,7.79607 4.65297,1.0718 15.00895,1.69941 25.1599,1.52478 15.94444,-0.27428 17.87376,-0.61003 25.45584,-4.42994 l 8.20386,-4.13316 8.67404,7.96548 c 36.50295,33.5211 96.00312,45.82145 144.68974,29.9114 16.14498,-5.27593 29.94899,-12.27057 41.55988,-21.05881 l 9.26175,-7.01021 34.37891,2.80273 c 18.90839,1.5415 35.17439,3.05832 36.14666,3.37071 0.97227,0.3124 1.76777,2.17895 1.76777,4.14791 0,3.49677 0.23496,3.57992 10.11617,3.57992 5.56389,0 19.03453,1.02229 29.93474,2.27176 l 19.81857,2.27176 13.108,8.68839 13.108,8.6884 0.96338,8.84581 c 0.52986,4.8652 0.52105,13.56614 -0.0195,19.33542 l -0.98296,10.48961 -8.09768,7.72386 c -12.55296,11.97351 -25.19179,17.12419 -63.0994,25.71474 -14.4442,3.27333 -17.98287,3.51004 -49.49748,3.31112 -18.66761,-0.11781 -48.57823,-0.72315 -66.46803,-1.34513 z M 199.22733,610.28146 c 6.30394,-6.18535 1.43707,-15.60467 -8.06278,-15.60467 -7.0797,0 -10.85233,3.19557 -10.85233,9.19239 0,9.44396 11.76163,13.43119 18.91511,6.41228 z m -30.67351,-1.70905 c 6.82122,-6.40821 2.29774,-16.72405 -7.33348,-16.72405 -9.72703,0 -13.9043,9.55879 -7.13535,16.32774 4.31613,4.31612 10.12695,4.47528 14.46883,0.39631 z"
       id="path315"
       transform="scale(0.26458333)" />
    <path
       style="fill:#6c5353;fill-opacity:0.476923;stroke-width:1.41421"
       d="m 454.66965,746.52979 c -3.50018,-0.20474 -35.00179,-1.06864 -70.00357,-1.91977 -151.045,-3.67296 -172.83781,-4.88001 -195.86857,-10.84866 -22.1232,-5.73343 -26.16861,-9.14955 -37.51394,-31.67837 l -5.26356,-10.45203 -1.26296,-28.28599 c -1.27886,-28.64204 -0.52803,-40.52209 3.62488,-57.35447 1.26465,-5.12583 1.97237,-6.487 2.07543,-3.99174 0.19151,4.63698 6.12025,9.64859 11.41429,9.64859 8.26161,0 12.94508,-11.15234 7.12687,-16.97056 -3.20153,-3.20153 -12.51357,-3.89131 -15.27351,-1.13137 -1.31993,1.31993 -1.69706,1.31993 -1.69706,0 0,-2.39673 5.24318,-7.35391 7.77818,-7.35391 1.16672,0 2.12676,-0.7955 2.13341,-1.76777 0.0194,-2.83432 16.04704,-7.20328 22.1946,-6.04999 12.49112,2.34335 14.97747,5.60776 21.57303,28.32385 1.8067,6.22254 4.72033,14.58347 6.47473,18.57984 4.28986,9.77188 8.09587,11.01548 33.89125,11.07385 18.67933,0.0423 20.26729,-0.17458 28.07991,-3.83435 8.21692,-3.84917 8.30983,-3.85855 12.02082,-1.2133 2.05694,1.46623 5.01268,4.10454 6.56832,5.86292 3.76107,4.25125 21.523,15.8448 31.52239,20.57527 23.08247,10.91976 46.82692,15.48709 74.40656,14.31238 31.99866,-1.36293 55.81408,-9.97871 83.25659,-30.11997 l 5.33779,-3.91764 30.72465,2.44159 c 39.01088,3.10006 39.74124,3.2303 40.75447,7.2673 0.75645,3.01394 1.77909,3.29782 15.18961,4.2165 7.90821,0.54175 21.41036,1.77716 30.00479,2.74537 l 15.62621,1.76037 13.01162,8.74899 13.01159,8.74898 v 18.51167 18.51167 l -6.0104,5.61716 c -14.41918,13.47574 -28.92339,19.82963 -62.04213,27.17889 -16.11262,3.5755 -17.4114,3.64178 -66.46804,3.39185 -27.51885,-0.1402 -52.89807,-0.42242 -56.39825,-0.62715 z M 198.80579,610.34192 c 4.90578,-4.90578 5.11346,-6.96725 1.20278,-11.93888 -2.31472,-2.94269 -4.14995,-3.72625 -8.72748,-3.72625 -7.01555,0 -10.96887,3.16036 -10.96887,8.76875 0,5.16394 5.66466,11.03024 10.65111,11.03024 2.21336,0 5.37529,-1.6667 7.84246,-4.13386 z"
       id="path317"
       transform="scale(0.26458333)"
       inkscape:label="path317" />
    <path
       style="fill:#6c5353;fill-opacity:0.476923;stroke-width:1.41421"
       d="m 490.02499,746.43604 c -15.94526,-0.18185 -67.81154,-1.32537 -115.25841,-2.54116 -144.89122,-3.71269 -169.44309,-5.33444 -192.77653,-12.73362 -14.82337,-4.70058 -20.3903,-9.97449 -29.46608,-27.91507 l -6.63208,-13.10999 -0.11395,-36.06244 c -0.0807,-25.53957 0.42893,-38.17013 1.74654,-43.28557 l 1.86048,-7.22312 4.04114,4.04114 c 7.43562,7.43563 16.60203,4.67248 17.95469,-5.4123 0.69119,-5.15325 0.35384,-6.09819 -2.94994,-8.26291 -2.74875,-1.80105 -5.48674,-2.24627 -10.40491,-1.69192 l -6.67454,0.75231 4.22737,-3.43507 c 2.32504,-1.88929 5.10738,-4.15971 6.18296,-5.04538 6.21813,-5.12021 22.70145,-6.97318 29.72442,-3.34146 5.56806,2.87935 7.45205,6.33009 13.55148,24.82102 6.85092,20.76914 9.46464,25.87892 14.40559,28.16272 5.12999,2.37118 37.51914,3.68398 45.01471,1.82455 3.11127,-0.77182 8.60193,-2.53377 12.20148,-3.91544 l 6.54462,-2.51214 10.42594,8.53687 c 19.38277,15.87083 38.84624,25.49877 62.75184,31.04128 17.18254,3.98377 54.8961,3.65742 71.95093,-0.62263 15.70253,-3.94067 32.83082,-11.90017 47.8042,-22.21456 l 11.557,-7.96102 32.63177,2.79882 c 17.94748,1.53934 33.72125,3.23126 35.05281,3.75982 1.33158,0.52855 2.78991,2.12318 3.24074,3.54362 0.66286,2.08851 2.90539,2.76179 11.72109,3.51909 5.99577,0.51505 19.47468,1.84857 29.95314,2.96337 l 19.05172,2.02692 13.12164,8.65235 13.12162,8.65235 v 18.08479 18.0848 l -8.13172,7.28751 c -20.72472,18.57313 -65.57721,30.61605 -109.248,29.33314 -5.05581,-0.14852 -22.23851,-0.41882 -38.18376,-0.60067 z M 198.58849,610.81453 c 5.25538,-4.42211 5.50668,-8.03971 0.8799,-12.66649 -4.14336,-4.14336 -12.60312,-4.72066 -16.56994,-1.13075 -3.6801,3.33046 -3.26863,9.83358 0.88503,13.98724 4.46574,4.46574 9.34642,4.4031 14.80501,-0.19 z"
       id="path319"
       transform="scale(0.26458333)" />
    <path
       style="fill:#6c5353;fill-opacity:0.476923;stroke-width:1.41421"
       d="m 409.41482,744.4588 c -19.83435,-0.52794 -51.65415,-1.37494 -70.71068,-1.88222 -91.86974,-2.44554 -131.73651,-5.08538 -150.209,-9.94633 -19.05437,-5.01407 -25.88082,-10.72472 -36.18942,-30.27417 l -5.93462,-11.25454 v -36.12195 c 0,-20.65639 0.65778,-39.18906 1.53633,-43.2856 l 1.53632,-7.16364 4.22904,3.5585 c 7.89764,6.64543 16.39604,3.88646 17.68751,-5.74218 0.9575,-7.13868 -1.52515,-9.47392 -11.13844,-10.47714 l -6.97874,-0.72828 7.93013,-5.20809 c 15.19696,-9.98054 31.63332,-8.37413 37.45948,3.66111 3.86831,7.99086 3.7952,10.11768 -0.2504,7.28403 -4.34005,-3.03989 -12.81803,-2.83254 -15.7296,0.38472 -5.25518,5.80691 0.10776,17.21276 8.09331,17.21276 4.12004,0 12.14537,-6.30773 12.30525,-9.67166 0.0614,-1.29204 0.77554,-0.43997 1.58695,1.89348 0.81142,2.33345 3.37377,8.87482 5.69412,14.53638 5.65038,13.78673 7.59585,14.7426 31.71329,15.58167 16.34944,0.56882 19.77166,0.27308 28.28427,-2.44431 5.3264,-1.70029 10.35559,-3.3838 11.17598,-3.74113 0.82039,-0.35733 7.05895,3.7217 13.86348,9.0645 31.13379,24.44577 62.22787,34.10017 104.14594,32.33627 29.94285,-1.25998 51.1341,-8.33706 76.96781,-25.70435 l 11.52686,-7.7492 33.18085,2.90337 c 31.60693,2.76565 33.32978,3.0675 36.32022,6.36326 2.737,3.01645 5.00265,3.63593 17.67767,4.83346 44.82641,4.23521 42.85409,3.7777 57.31432,13.29504 l 13.07752,8.60729 -0.34959,18.32595 -0.34961,18.32596 -8.48528,6.86742 c -15.11834,12.23578 -38.14744,21.19548 -66.42587,25.84362 -13.71194,2.25384 -86.4803,2.48771 -160.5554,0.516 z"
       id="path321"
       transform="scale(0.26458333)" />
    <path
       style="fill:#000000;fill-opacity:0.476923;stroke-width:1.41421"
       d="m 155.1029,606.96001 c -3.82496,-4.07149 -3.89635,-7.21917 -0.24652,-10.86901 5.56598,-5.56598 15.55635,-2.08866 15.55635,5.41466 0,4.0371 -4.80775,8.72748 -8.94587,8.72748 -1.80896,0 -4.67274,-1.47291 -6.36396,-3.27313 z"
       id="path1069"
       transform="scale(0.26458333)" />
    <path
       style="fill:#000000;fill-opacity:0.476923;stroke-width:1.41421"
       d="m 185.45269,610.13049 c -6.84119,-5.38128 -3.24579,-14.03949 5.83003,-14.03949 6.19206,0 11.55612,5.73475 7.06073,7.54868 -1.41422,0.57064 -1.41422,0.73563 0,0.82495 3.30303,0.20862 1.78543,4.27252 -2.40465,6.4393 -5.37563,2.77984 -6.03022,2.73156 -10.48611,-0.77344 z"
       id="path1071"
       transform="scale(0.26458333)" />
    <path
       style="fill:#000000;fill-opacity:0.476923;stroke-width:1.41421"
       d="m 185.36751,608.93555 c -5.49684,-6.07395 0.9888,-14.04142 9.12199,-11.20617 3.26889,1.13954 3.92466,2.18464 3.92466,6.25477 0,7.44616 -8.03072,10.49393 -13.04665,4.9514 z"
       id="path1073"
       transform="scale(0.26458333)" />
    <path
       style="fill:#000000;fill-opacity:0.476923;stroke-width:1.41421"
       d="m 187.69796,609.44584 c -6.58792,-4.61436 -1.82802,-13.33697 6.18101,-11.32683 2.77178,0.69567 3.40382,1.75916 3.40382,5.72735 0,3.37045 -0.84347,5.32446 -2.73546,6.33702 -3.43864,1.8403 -3.11999,1.87461 -6.84937,-0.73754 z"
       id="path1075"
       transform="scale(0.26458333)" />
    <path
       style="fill:#000000;fill-opacity:0.476923;stroke-width:1.41421"
       d="m 186.78265,607.52235 c -3.47255,-3.83712 -0.81472,-8.60292 4.79774,-8.60292 4.76032,0 6.74972,3.88585 4.31677,8.43186 -1.93935,3.62371 -5.92225,3.69846 -9.11451,0.17106 z"
       id="path1077"
       transform="scale(0.26458333)" />
    <path
       style="fill:#000000;fill-opacity:0.476923;stroke-width:1.41421"
       d="m 157.06801,607.22308 c -6.81035,-5.35702 -3.66636,-13.14662 4.96012,-12.28923 5.9984,0.59618 8.93178,4.84566 6.56336,9.50809 -2.58682,5.09239 -7.17688,6.20018 -11.52348,2.78114 z"
       id="path1079"
       transform="scale(0.26458333)" />
    <path
       style="fill:#000000;fill-opacity:0.476923;stroke-width:1.41421"
       d="m 156.95593,605.39018 c -4.84295,-4.84294 -2.85854,-9.29918 4.14101,-9.29918 6.58692,0 9.14426,3.31459 6.37035,8.25666 -2.83882,5.05772 -6.16616,5.38772 -10.51136,1.04252 z"
       id="path1081"
       transform="scale(0.26458333)" />
    <path
       style="fill:#000000;fill-opacity:0.476923;stroke-width:1.41421"
       d="m 157.19689,604.81848 c -3.08413,-3.40792 -2.9544,-5.47099 0.4589,-7.29774 4.24386,-2.27124 9.92851,-0.33 9.92851,3.39048 0,6.26915 -6.15476,8.58429 -10.38741,3.90726 z"
       id="path1083"
       transform="scale(0.26458333)" />
    <path
       style="fill:#6c5353;fill-opacity:0.476923;stroke-width:1.41421"
       d="m 157.59642,604.48789 c -4.0678,-4.0678 -2.75825,-6.27557 3.72241,-6.27557 6.22613,0 8.01425,2.99894 4.11378,6.89941 -2.99839,2.99839 -4.31911,2.89325 -7.83619,-0.62384 z"
       id="path1085"
       transform="scale(0.26458333)" />
    <path
       style="fill:#6c5353;fill-opacity:0.476923;stroke-width:1.41421"
       d="m 449.01279,745.12976 c -7.38926,-0.23728 -41.11825,-1.1103 -74.95331,-1.94005 -147.99602,-3.62932 -179.32812,-6.19306 -200.39597,-16.39738 -8.02322,-3.88607 -13.1362,-9.98576 -22.26246,-26.55865 l -5.34237,-9.7015 0.70487,-39.79597 c 0.38768,-21.88778 1.16734,-41.22304 1.73257,-42.96723 l 1.02769,-3.17126 4.189,3.52481 c 7.89693,6.64483 16.3593,3.82828 17.66122,-5.87821 0.66024,-4.92249 0.28931,-6.10753 -2.5298,-8.08211 -1.81692,-1.27262 -5.78539,-2.31385 -8.81883,-2.31385 -6.86924,0 -5.60994,-2.01372 4.80376,-7.68156 5.5733,-3.03338 9.08922,-3.91499 15.61313,-3.91499 10.27684,0 14.68306,2.55657 18.28956,10.61194 2.98571,6.66879 2.79399,7.49806 -1.23497,5.34183 -1.57112,-0.84084 -5.02717,-1.52879 -7.68011,-1.52879 -8.8957,0 -12.42615,8.63227 -6.57347,16.07273 4.24396,5.39532 10.20757,5.01259 16.26396,-1.0438 4.56391,-4.56392 4.80912,-4.64031 5.67393,-1.76777 0.49714,1.65126 2.80875,7.63447 5.13693,13.29603 5.74703,13.97536 7.49507,14.79955 32.92661,15.52452 17.33804,0.49426 20.83725,0.19919 28.15211,-2.37388 4.59422,-1.61605 9.27558,-2.93828 10.40303,-2.93828 1.12745,0 8.18727,4.52614 15.6885,10.05809 23.03629,16.98862 45.05925,26.2652 70.39876,29.65358 17.17226,2.29627 47.51083,0.90745 61.82756,-2.8303 13.81426,-3.60657 33.88584,-13.01976 47.84065,-22.43637 l 10.62124,-7.16714 29.56203,2.7131 c 34.34518,3.15208 36.10767,3.45755 40.14308,6.95745 3.49689,3.03284 5.79356,3.45099 35.16324,6.40223 23.97804,2.40946 27.40143,3.4731 42.27222,13.13387 l 10.23479,6.649 0.0183,17.54135 0.0182,17.54136 -5.53032,5.08606 c -12.56043,11.55141 -35.16189,21.71139 -60.60929,27.24555 -12.43333,2.70393 -18.75201,3.02093 -65.38225,3.28011 -28.39033,0.15781 -57.66455,0.0928 -65.05382,-0.14452 z"
       id="path1087"
       transform="scale(0.26458333)" />
    <path
       style="fill:#6c5353;fill-opacity:0.476923;stroke-width:1.41421"
       d="m 467.3409,745.53582 c -0.35774,-0.32129 -25.78808,-1.01 -56.51187,-1.53044 -30.72379,-0.52045 -59.99801,-1.21638 -65.05382,-1.54653 -5.05582,-0.33015 -23.5113,-0.95953 -41.0122,-1.39863 -35.18504,-0.8828 -49.76177,-1.57562 -77.07463,-3.66332 -49.35379,-3.77243 -60.67224,-9.03509 -74.83953,-34.79759 l -6.85371,-12.46311 0.89776,-38.89087 c 0.49377,-21.38998 1.28491,-40.61984 1.75809,-42.73303 l 0.86032,-3.84215 4.57379,3.4886 c 6.8726,5.24199 12.78285,4.61057 16.11592,-1.72173 4.17496,-7.93177 -0.12034,-14.58866 -9.4132,-14.58866 -6.61901,0 -5.23048,-2.64564 3.88885,-7.40963 8.57223,-4.47819 20.19866,-5.27363 26.84504,-1.83666 3.5273,1.82404 10.81039,13.15366 9.37705,14.587 -0.29992,0.29992 -1.83076,-0.14265 -3.40188,-0.98349 -1.57112,-0.84084 -5.02717,-1.52879 -7.68011,-1.52879 -8.8957,0 -12.42615,8.63227 -6.57347,16.07273 4.05174,5.15096 9.75422,4.91897 16.10275,-0.65511 4.53601,-3.98267 5.07324,-4.14354 5.90369,-1.76777 0.50247,1.43748 2.80085,7.24578 5.10751,12.90734 5.69379,13.97509 7.43934,14.79907 32.88748,15.52452 17.33804,0.49426 20.83725,0.19919 28.15211,-2.37388 4.59422,-1.61605 9.09506,-2.93828 10.00188,-2.93828 0.90682,0 7.96665,4.50941 15.68851,10.02092 24.33644,17.37022 45.71796,26.33681 70.7999,29.69075 17.17226,2.29627 47.51083,0.90745 61.82756,-2.8303 13.81231,-3.60606 33.88538,-13.01945 47.83485,-22.43246 l 10.61546,-7.16323 28.55692,2.66637 c 33.37504,3.11625 37.69969,3.81551 39.88546,6.44919 2.44241,2.94293 9.63021,4.39157 34.09813,6.87221 25.58827,2.59422 30.04475,3.91195 44.35004,13.11374 l 10.48795,6.74632 0.0225,17.05382 c 0.0247,18.77548 0.12643,18.50387 -9.87701,26.38249 -14.4149,11.35302 -36.46207,20.28357 -60.36549,24.45198 -10.99198,1.91684 -106.25081,4.62305 -107.98259,3.06768 z"
       id="path1089"
       transform="scale(0.26458333)" />
    <path
       style="fill:#6c5353;fill-opacity:0.476923;stroke-width:1.41421"
       d="m 451.13411,745.12525 c -7.00035,-0.22414 -41.36574,-1.09969 -76.36753,-1.94566 -74.25302,-1.79467 -122.73297,-3.66784 -148.49242,-5.73747 -47.41161,-3.80927 -59.29458,-9.40273 -73.40537,-34.55288 l -6.93733,-12.36466 0.9115,-39.79217 c 0.50133,-21.88569 1.29543,-41.16499 1.76466,-42.84289 l 0.85314,-3.05072 5.01648,3.40427 c 6.50191,4.41232 10.7696,4.31702 14.41863,-0.32197 6.18637,-7.8647 2.04574,-16.07274 -8.10805,-16.07274 -6.61901,0 -5.23048,-2.64564 3.88885,-7.40963 8.57223,-4.47819 20.19866,-5.27363 26.84504,-1.83666 3.5273,1.82404 10.81039,13.15366 9.37705,14.587 -0.29992,0.29992 -1.83076,-0.14265 -3.40188,-0.98349 -4.48115,-2.39824 -12.21542,-1.84728 -14.84415,1.05744 -3.39205,3.74817 -2.90153,9.70923 1.13075,13.74151 4.62276,4.62276 8.92901,4.37584 15.30211,-0.87741 4.78061,-3.94058 5.36022,-4.10646 6.17671,-1.76776 0.49556,1.41948 2.78829,7.21306 5.09495,12.87462 5.57779,13.69037 7.47491,14.62607 31.51404,15.54336 16.45781,0.62801 19.75723,0.34485 29.42541,-2.52532 l 10.88916,-3.23263 9.83689,6.93099 c 24.71049,17.41079 39.08596,24.67293 60.57543,30.60122 9.36226,2.58277 14.64634,2.99048 38.43186,2.96531 23.65877,-0.025 29.14126,-0.45608 38.58509,-3.03367 14.07357,-3.84123 31.70971,-12.11653 46.83721,-21.97712 l 11.91188,-7.76456 29.46821,2.69004 c 33.63907,3.07078 34.74421,3.26784 39.96262,7.12597 3.07416,2.27283 8.93904,3.40049 29.20305,5.61494 29.36084,3.20855 34.24852,4.59637 48.23832,13.69694 l 10.31552,6.7104 0.0183,17.40384 0.0182,17.40383 -4.59619,4.31599 c -14.35765,13.48233 -38.47843,24.02303 -65.92617,28.80952 -11.55026,2.01419 -90.58213,3.68002 -123.932,2.61222 z"
       id="path1091"
       transform="scale(0.26458333)" />
    <path
       style="fill:#6c5353;fill-opacity:0.476923;stroke-width:1.41421"
       d="m 447.59858,745.1585 c -7.38927,-0.24975 -40.80006,-1.134 -74.24621,-1.965 -120.23626,-2.98734 -165.72068,-5.7801 -185.9684,-11.41848 -17.35658,-4.8333 -23.93243,-10.3099 -34.71782,-28.91425 l -6.55689,-11.31036 0.80692,-40.30508 c 0.44381,-22.1678 1.19789,-41.67791 1.67575,-43.35581 l 0.86883,-3.05072 5.01648,3.40427 c 2.75906,1.87236 6.47247,3.40428 8.25202,3.40428 6.72835,0 12.03499,-12.77228 7.03183,-16.92453 -1.13622,-0.94298 -4.66043,-2.06252 -7.83157,-2.48786 -3.30169,-0.44285 -5.54357,-1.43976 -5.24591,-2.33275 0.28589,-0.85767 3.88277,-3.31624 7.99306,-5.46348 8.57223,-4.47819 20.19866,-5.27363 26.84504,-1.83666 3.5273,1.82404 10.81039,13.15366 9.37705,14.587 -0.29992,0.29992 -1.83076,-0.14265 -3.40188,-0.98349 -4.08836,-2.18802 -10.38818,-1.8862 -14.04156,0.67272 -4.31096,3.01952 -4.15715,9.64092 0.32816,14.12623 4.6215,4.6215 8.9288,4.37601 15.29525,-0.87176 l 5.26882,-4.343 1.45722,3.98945 c 7.72896,21.1596 10.47785,24.48567 21.53871,26.06117 15.21345,2.16698 33.74325,1.43263 44.53114,-1.7648 l 10.24512,-3.03657 16.62493,11.33449 c 18.74676,12.78109 26.16674,16.76902 41.32867,22.21239 25.29749,9.0822 66.52927,10.29445 93.38311,2.74554 11.28651,-3.17277 29.31622,-11.90846 43.03719,-20.85224 l 11.95317,-7.79147 29.42691,2.71565 c 33.22478,3.06614 34.90204,3.35959 40.01615,7.00115 3.48273,2.47992 13.17736,4.25221 34.6656,6.33726 23.3743,2.26806 28.33005,3.79571 42.76168,13.18165 l 10.23479,6.65641 0.0183,17.31182 0.0182,17.31181 -4.59619,4.45359 c -14.17475,13.73493 -42.26172,25.58918 -69.76491,29.44461 -10.12188,1.41889 -98.83554,2.89484 -123.62879,2.05682 z"
       id="path1093"
       transform="scale(0.26458333)" />
    <path
       style="fill:#6c5353;fill-opacity:0.476923;stroke-width:1.41421"
       d="m 453.25543,745.65991 c -0.3889,-0.38061 -22.02637,-1.11213 -48.08326,-1.6256 -91.18636,-1.79689 -154.25616,-4.27326 -185.98508,-7.3025 -41.91855,-4.0021 -52.26695,-9.27072 -66.52133,-33.86769 l -6.5565,-11.31371 0.80692,-40.30508 c 0.44381,-22.1678 1.19789,-41.67791 1.67575,-43.35581 l 0.86883,-3.05072 5.01648,3.40427 c 2.75906,1.87236 6.47247,3.40428 8.25202,3.40428 6.72835,0 12.03499,-12.77228 7.03183,-16.92453 -1.13622,-0.94298 -4.66043,-2.06252 -7.83157,-2.48786 -3.30169,-0.44285 -5.54357,-1.43976 -5.24591,-2.33275 0.28589,-0.85767 3.88277,-3.31624 7.99306,-5.46348 8.49578,-4.43825 20.18613,-5.28011 26.68116,-1.9214 3.73212,1.92996 11.18246,13.03022 9.72435,14.48832 -0.4008,0.4008 -2.01418,0.0408 -3.5853,-0.80007 -7.42065,-3.97141 -17.18466,0.26557 -17.18466,7.45709 0,4.3844 6.07422,10.81311 10.21686,10.81311 1.80446,0 5.65181,-1.95435 8.54965,-4.34301 l 5.26882,-4.343 1.45722,3.98945 c 4.75257,13.01113 7.60998,18.88642 10.51056,21.61137 6.64008,6.23804 41.03324,7.54452 57.61454,2.18859 l 8.05773,-2.60272 18.13812,12.22471 c 20.35184,13.7167 35.13266,20.68514 53.6051,25.2722 10.33376,2.56607 16.67193,3.12409 35.88501,3.15935 14.05622,0.0258 27.27077,-0.72172 33.23401,-1.87996 17.21728,-3.34412 38.13197,-12.72131 57.53312,-25.79524 l 8.03564,-5.415 22.36995,2.11083 c 12.30348,1.16096 26.18833,2.49122 30.85523,2.95614 4.6669,0.46491 11.41368,2.32989 14.99284,4.1444 5.89043,2.98623 13.72178,4.50288 35.91885,6.95618 24.87071,2.74881 28.30165,3.80897 42.76168,13.21337 l 10.23479,6.65641 0.0183,17.86086 0.0182,17.86087 -6.01041,4.9199 c -17.04069,13.94891 -45.65832,25.52894 -70.35712,28.46983 -8.64988,1.02993 -115.07854,2.83664 -115.96551,1.9686 z"
       id="path1095"
       transform="scale(0.26458333)" />
    <path
       style="fill:#6c5353;fill-opacity:0.476923;stroke-width:1.41421"
       d="m 436.28487,745.13287 c -5.83363,-0.24669 -37.33523,-1.12204 -70.00357,-1.94519 -106.85282,-2.69243 -158.59673,-5.8057 -176.76311,-10.63531 -18.26073,-4.8547 -26.13897,-11.20139 -36.85243,-29.68825 l -6.5565,-11.31371 0.80692,-40.30508 c 0.44381,-22.1678 1.19789,-41.67791 1.67575,-43.35581 l 0.86883,-3.05072 5.01648,3.40427 c 8.08935,5.48958 13.96818,3.81241 16.57062,-4.72745 2.01166,-6.60119 -2.94971,-11.66726 -11.42613,-11.66726 -5.54108,0 -3.43534,-3.0675 5.09678,-7.42462 8.6475,-4.41604 20.189,-5.242 26.63932,-1.90641 3.73212,1.92996 11.18246,13.03022 9.72435,14.48832 -0.4008,0.4008 -2.01418,0.0408 -3.5853,-0.80007 -7.42065,-3.97141 -17.18466,0.26557 -17.18466,7.45709 0,3.8849 5.90609,10.81311 9.21784,10.81311 2.93504,0 7.64141,-2.43736 11.52091,-5.96652 3.60373,-3.27828 3.58386,-3.30326 8.85639,11.1395 1.74854,4.78969 4.63606,10.07721 6.41671,11.75004 6.50863,6.11455 35.31643,7.55778 54.42169,2.72647 l 11.77609,-2.97792 12.39035,8.5863 c 24.09535,16.69767 40.82565,24.67794 61.46961,29.32071 14.78793,3.32577 53.24625,3.45203 67.90561,0.22294 15.78698,-3.47748 31.57034,-10.24612 48.72121,-20.89392 l 15.92723,-9.88812 15.74735,1.44443 c 40.88633,3.75028 45.40502,4.42777 51.97588,7.79273 5.08153,2.60227 12.0238,3.99083 31.29653,6.25976 28.41247,3.34494 33.29035,4.77975 47.36153,13.93126 l 10.23479,6.65641 0.0183,18.01054 0.0182,18.01055 -8.13173,6.38712 c -14.81834,11.63917 -38.47342,21.53681 -61.16473,25.59225 -9.16146,1.63735 -25.98122,2.24981 -70.71068,2.57475 -32.27942,0.23449 -63.46283,0.22452 -69.29646,-0.0222 z"
       id="path1097"
       transform="scale(0.26458333)" />
    <path
       style="fill:#6c5353;fill-opacity:0.476923;stroke-width:1.41421"
       d="m 381.13054,743.94369 c -157.45561,-4.63103 -185.91215,-6.8486 -204.58681,-15.94308 -9.54855,-4.65011 -15.84873,-11.28198 -23.8793,-25.13649 l -6.55783,-11.31371 0.76823,-41.36421 c 0.42252,-22.75031 1.31473,-42.34076 1.98268,-43.53433 1.05702,-1.88878 1.65006,-1.79232 4.57456,0.74408 6.82628,5.9204 14.34319,4.82452 17.12678,-2.4969 2.83005,-7.44358 -1.86898,-13.05069 -10.93712,-13.05069 -5.54108,0 -3.43534,-3.0675 5.09678,-7.42462 8.6475,-4.41604 20.189,-5.242 26.63932,-1.90641 3.73212,1.92996 11.18246,13.03022 9.72435,14.48832 -0.4008,0.4008 -2.01418,0.0408 -3.5853,-0.80007 -7.14565,-3.82423 -17.18466,0.2266 -17.18466,6.93418 0,1.54336 1.80079,4.82154 4.00175,7.28484 4.6582,5.21343 8.55962,4.97447 15.60755,-0.95597 4.9164,-4.13688 4.85043,-4.19924 9.47472,8.95685 4.25444,12.10388 8.18481,15.65217 18.99924,17.15232 13.72821,1.90432 33.37303,1.0539 44.54773,-1.92848 l 9.89949,-2.64204 13.43503,9.50691 c 15.88873,11.24319 37.80927,22.42483 51.6188,26.33067 15.30873,4.32988 38.98162,6.05376 59.29438,4.31787 26.10878,-2.2312 43.70508,-8.50432 67.99826,-24.24156 l 13.31347,-8.62454 30.81321,3.00305 c 25.99284,2.53326 31.91939,3.54427 37.88428,6.46269 5.49429,2.68817 12.47121,4.09292 31.28812,6.29961 27.74501,3.2537 32.28814,4.58659 46.65572,13.6881 l 10.4445,6.61633 v 18.10506 18.10506 l -7.20587,5.69591 c -15.58747,12.32119 -38.80617,22.1771 -61.91921,26.28358 -17.19191,3.05446 -115.0298,3.74952 -195.33285,1.38767 z"
       id="path1099"
       transform="scale(0.26458333)" />
    <path
       style="fill:#6c5353;fill-opacity:0.476923;stroke-width:1.41421"
       d="m 432.04223,745.14305 c -5.05581,-0.24828 -36.23922,-1.13396 -69.29646,-1.96819 -130.13767,-3.28412 -167.03127,-6.23084 -185.7672,-14.83734 -9.72704,-4.4682 -15.27538,-10.21333 -23.83778,-24.68329 l -7.16226,-12.10382 0.76864,-41.25052 c 0.42275,-22.68779 1.34377,-42.27824 2.04672,-43.53433 1.14714,-2.04983 1.62233,-1.98524 4.63818,0.63039 6.74568,5.8505 14.34111,4.82997 17.04836,-2.29061 1.9284,-5.07209 1.74522,-5.91577 -2.12474,-9.78573 -2.20625,-2.20625 -5.08373,-3.47125 -7.89602,-3.47125 -6.3787,0 -4.76243,-2.8177 4.25884,-7.42462 8.6475,-4.41604 20.189,-5.242 26.63932,-1.90641 3.73212,1.92996 11.18246,13.03022 9.72435,14.48832 -0.4008,0.4008 -2.01418,0.0408 -3.5853,-0.80007 -4.75148,-2.54292 -10.7825,-1.79732 -14.10971,1.74434 -4.08225,4.34535 -3.87779,7.09741 0.9268,12.47468 4.65374,5.20845 8.90054,4.96161 15.208,-0.88395 4.49908,-4.1696 5.50218,-3.7571 7.7502,3.18706 3.84286,11.87059 8.39627,18.86214 13.77531,21.15133 7.66548,3.26225 42.4554,3.22141 51.01287,-0.0599 3.40352,-1.30505 7.44105,-2.37282 8.97228,-2.37282 1.53124,0 8.10635,3.84221 14.61137,8.53825 20.97588,15.14271 41.0505,24.57373 61.63128,28.95426 19.65654,4.18382 54.31597,3.5083 73.98187,-1.44191 10.92594,-2.75023 32.3194,-12.96963 46.34241,-22.13723 10.68683,-6.98655 11.07584,-7.11455 19.09189,-6.2817 4.50053,0.46759 18.36512,1.84906 30.81019,3.06993 17.47213,1.71403 24.23845,2.97374 29.69849,5.52909 5.21806,2.4421 13.46635,4.08689 31.47544,6.2765 26.95463,3.27723 33.31394,5.18797 47.36696,14.23199 l 9.54594,6.14342 v 18.1238 18.12379 l -7.20587,5.69591 c -10.11411,7.99474 -22.56679,14.61974 -36.89816,19.63031 -23.60739,8.25369 -29.8189,8.84215 -98.02443,9.28641 -34.22396,0.22291 -66.36196,0.20217 -71.41778,-0.0461 z"
       id="path1101"
       transform="scale(0.26458333)" />
    <path
       style="fill:#6c5353;fill-opacity:0.476923;stroke-width:1.41421"
       d="m 429.2138,745.16569 c -6.61144,-0.25791 -38.43125,-1.1549 -70.71067,-1.99331 -125.24428,-3.25309 -162.87646,-6.32029 -181.53999,-14.79636 -10.89584,-4.94836 -17.43661,-12.22675 -27.0392,-30.08845 l -3.98097,-7.40497 0.79352,-40.92931 c 0.43644,-22.51112 1.36546,-41.95131 2.0645,-43.20042 1.13708,-2.03185 1.62498,-1.9641 4.63108,0.64308 6.74568,5.8505 14.34111,4.82997 17.04836,-2.29061 1.9284,-5.07209 1.74522,-5.91577 -2.12474,-9.78573 -2.20625,-2.20625 -5.08373,-3.47125 -7.89602,-3.47125 -6.3787,0 -4.76243,-2.8177 4.25884,-7.42462 8.06226,-4.11718 19.04833,-5.19405 26.00515,-2.54908 3.4404,1.30804 11.8929,13.59661 10.3876,15.10191 -0.41679,0.41679 -2.04326,0.0698 -3.61438,-0.77099 -4.59159,-2.45734 -9.66583,-1.77827 -13.89503,1.85954 -3.4284,2.94898 -3.75953,3.89296 -2.55374,7.28016 1.8911,5.31231 8.00158,9.68991 11.82972,8.47491 1.6533,-0.52474 4.90299,-2.55028 7.22153,-4.5012 l 4.21552,-3.54713 1.64466,3.99841 c 7.68166,18.67525 9.61737,21.78252 14.96094,24.0158 7.78636,3.25421 42.54087,3.2554 51.13987,0.002 3.40352,-1.28777 7.36486,-2.34143 8.80297,-2.34143 1.43811,0 9.61232,4.80538 18.16489,10.67862 33.56897,23.05255 60.46303,30.97462 99.78,29.3918 30.67449,-1.23489 49.65363,-7.55454 78.84758,-26.25456 l 10.96532,-7.02378 17.31895,1.58588 c 36.1198,3.30744 44.14533,4.53808 51.26007,7.86027 5.19415,2.42537 13.48375,4.08146 31.23002,6.23909 27.54523,3.34901 32.55989,4.81848 46.861,13.73198 l 10.29732,6.41803 v 18.18963 18.18963 l -6.05471,4.96139 c -15.12455,12.39342 -35.24084,21.4268 -58.74181,26.37845 -12.35619,2.60345 -19.83346,2.93166 -76.62483,3.36339 -34.61287,0.26315 -68.34187,0.26743 -74.95332,0.01 z"
       id="path1103"
       transform="scale(0.26458333)" />
    <path
       style="fill:#6c5353;fill-opacity:0.476923;stroke-width:1.41421"
       d="m 433.36905,745.50099 c -0.34084,-0.30666 -21.93898,-0.97009 -47.99586,-1.4743 -26.05689,-0.50423 -52.14913,-1.20776 -57.98276,-1.56343 -5.83363,-0.35566 -22.69813,-1.00104 -37.47666,-1.43417 -49.55648,-1.45241 -85.73154,-4.52578 -101.73855,-8.64352 -16.94152,-4.35815 -24.29907,-10.37653 -35.30532,-28.87932 l -6.86838,-11.54655 0.63935,-41.24468 c 0.35956,-23.19511 1.25021,-42.33624 2.03522,-43.73898 1.314,-2.34798 1.59298,-2.32335 4.75598,0.41991 6.74568,5.8505 14.34111,4.82997 17.04836,-2.29061 1.9284,-5.07209 1.74522,-5.91577 -2.12474,-9.78573 -2.20625,-2.20625 -5.08373,-3.47125 -7.89602,-3.47125 -6.3787,0 -4.76243,-2.8177 4.25884,-7.42462 8.06226,-4.11718 19.04833,-5.19405 26.00515,-2.54908 3.4404,1.30804 11.8929,13.59661 10.3876,15.10191 -0.41679,0.41679 -2.04326,0.0698 -3.61438,-0.77099 -4.59159,-2.45734 -9.66583,-1.77827 -13.89503,1.85954 -3.4284,2.94898 -3.75953,3.89296 -2.55374,7.28016 0.76199,2.14051 3.09499,5.16453 5.18445,6.72004 3.35365,2.49665 4.3109,2.61619 8.16524,1.01967 2.40143,-0.9947 4.82844,-2.6283 5.39337,-3.63021 2.58007,-4.57579 4.98005,-2.34959 9.98681,9.26364 7.0561,16.3667 8.93102,17.26789 36.02145,17.3138 15.16888,0.0257 21.58451,-0.53032 26.26092,-2.27593 3.40352,-1.27048 7.37396,-2.30995 8.82321,-2.30995 1.44925,0 9.80148,4.88319 18.56053,10.85153 27.40696,18.67488 47.17707,26.25391 74.86009,28.69821 17.23619,1.52188 43.29291,-0.12424 56.81144,-3.58905 11.27757,-2.89044 31.36511,-12.40025 45.93513,-21.74653 l 11.53826,-7.40149 25.11318,2.29894 c 29.18371,2.67156 39.31102,4.28798 43.3881,6.92517 4.11549,2.66204 7.00054,3.23453 33.10944,6.57002 25.59582,3.26994 32.94493,5.52911 46.30773,14.23531 l 9.08101,5.91652 v 18.18578 18.18578 l -7.2705,5.747 c -21.69591,17.14963 -48.48073,26.38281 -81.82495,28.20645 -20.29006,1.10969 -122.0776,1.91244 -123.12397,0.97101 z"
       id="path1105"
       transform="scale(0.26458333)" />
    <path
       style="fill:#000000;fill-opacity:0.476923;stroke-width:1.41421"
       d="m 160.24807,596.53915 c 1.02089,-0.40853 2.24064,-0.35829 2.71058,0.11164 0.46993,0.46993 -0.36534,0.80418 -1.85616,0.74278 -1.64748,-0.0679 -1.98258,-0.40297 -0.85442,-0.85442 z"
       id="path1107"
       transform="scale(0.26458333)" />
    <path
       style="fill:#000000;fill-opacity:0.476923;stroke-width:1.41421"
       d=""
       id="path1109"
       transform="scale(0.26458333)" />
    <path
       style="fill:#000000;fill-opacity:0.476923;stroke-width:1.41421"
       d=""
       id="path1111"
       transform="scale(0.26458333)" />
    <path
       style="fill:#000000;fill-opacity:0.476923;stroke-width:1.41421"
       d=""
       id="path1113"
       transform="scale(0.26458333)" />
    <path
       style="fill:#000000;fill-opacity:0.476923;stroke-width:1.41421"
       d="m 158.02184,604.34763 c -3.3159,-3.31591 -2.03829,-5.63508 2.84495,-5.16425 3.50566,0.33801 4.59619,1.11425 4.59619,3.27158 0,3.31917 -4.79501,4.53879 -7.44114,1.89267 z"
       id="path1115"
       transform="scale(0.26458333)" />
    <path
       style="fill:#000000;fill-opacity:0.476923;stroke-width:1.41421"
       d="m 157.68481,602.45496 c -1.501,-1.80859 -1.10955,-2.12132 2.65526,-2.12132 2.98235,0 4.41581,0.68862 4.41581,2.12132 0,2.74454 -4.7933,2.74454 -7.07107,0 z"
       id="path1117"
       transform="scale(0.26458333)" />
    <path
       style="fill:#000000;fill-opacity:0.476923;stroke-width:1.41421"
       d="m 188.44395,608.70306 c -3.97953,-2.31371 -3.17354,-8.14018 1.2807,-9.25812 5.15152,-1.29295 8.47196,2.86041 5.66568,7.0869 -2.35253,3.5431 -3.80558,3.99728 -6.94638,2.17122 z"
       id="path1119"
       transform="scale(0.26458333)" />
    <path
       style="fill:#000000;fill-opacity:0.476923;stroke-width:1.41421"
       d="m 186.85685,606.65844 c -1.3957,-3.63713 -1.08201,-4.70712 1.83821,-6.26997 4.14251,-2.21701 7.39929,-0.32101 6.89646,4.01492 -0.32605,2.81159 -1.32688,3.81243 -4.13848,4.13848 -2.41645,0.28023 -4.01771,-0.37594 -4.59619,-1.88343 z"
       id="path1121"
       transform="scale(0.26458333)" />
    <path
       style="fill:#000000;fill-opacity:0.476923;stroke-width:1.41421"
       d="m 187.66613,607.12187 c -2.47578,-2.47579 -2.07938,-5.06988 1.02893,-6.7334 3.19948,-1.71231 7.17351,-0.54776 7.17351,2.10213 0,5.78489 -4.50513,8.32858 -8.20244,4.63127 z"
       id="path1123"
       transform="scale(0.26458333)" />
    <path
       style="fill:#000000;fill-opacity:0.476923;stroke-width:1.41421"
       d=""
       id="path1125"
       transform="scale(0.26458333)" />
    <path
       style="fill:#000000;fill-opacity:0.476923;stroke-width:1.41421"
       d=""
       id="path1127"
       transform="scale(0.26458333)" />
    <path
       style="fill:#000000;fill-opacity:0.476923;stroke-width:1.41421"
       d=""
       id="path1129"
       transform="scale(0.26458333)" />
    <path
       style="fill:#000000;fill-opacity:0.476923;stroke-width:1.41421"
       d=""
       id="path1131"
       transform="scale(0.26458333)" />
    <path
       style="fill:#000000;fill-opacity:0.476923;stroke-width:1.41421"
       d="M 360.02351,666.72298 C 270.13636,647.24511 218.4603,551.58263 248.87777,460.97055 c 17.87812,-53.258 63.14319,-94.74383 118.77147,-108.8551 34.21478,-8.67929 68.40315,-7.42642 105.15368,3.85348 0.52723,0.16182 -8.26913,0.66582 -19.54749,1.11998 l -20.50609,0.82577 23.77235,0.29422 23.77235,0.29423 11.58299,5.56783 c 50.84469,24.44057 87.37446,71.12544 101.04872,129.13975 3.33401,14.14484 3.75414,18.80325 3.79414,42.06911 0.0495,28.80886 -1.68481,40.90491 -9.13288,63.69686 -4.13318,12.64804 -15.66005,37.38873 -18.83021,40.41621 -1.22422,1.16912 -11.38784,0.73705 -38.902,-1.6538 -20.48466,-1.78 -37.45273,-3.44676 -37.70682,-3.70389 -0.2541,-0.25715 3.62191,-5.24051 8.61335,-11.07414 10.81566,-12.64055 23.29043,-36.50217 27.72547,-53.03301 4.21998,-15.72924 4.50411,-48.86853 0.55142,-64.31495 -6.59977,-25.79068 -15.94743,-42.36269 -33.92038,-60.13584 -20.18059,-19.95622 -41.84097,-30.37644 -68.9851,-33.18688 -34.92534,-3.61609 -67.06009,6.93644 -90.29486,29.65135 -30.86896,30.17829 -39.44572,74.2045 -21.90252,112.42997 14.54283,31.68786 42.9773,50.20458 77.09468,50.20458 33.84827,0 60.6517,-18.27138 70.77166,-48.24367 2.52495,-7.47817 2.95811,-11.4649 2.51782,-23.17411 -0.46146,-12.27225 -1.12044,-15.39509 -4.9839,-23.61837 -8.63724,-18.38413 -24.54601,-29.53877 -43.59747,-30.56891 -11.90922,-0.64396 -18.94409,1.05796 -27.93089,6.75723 -12.45786,7.90053 -18.78914,23.35328 -15.13236,36.93352 1.91348,7.10612 10.79996,16.86049 15.36033,16.86049 4.28406,0 3.72982,-0.9794 -2.30849,-4.07931 -6.68226,-3.43049 -10.26828,-9.50886 -11.17823,-18.94725 -0.59568,-6.17875 -0.0607,-8.64266 3.28887,-15.14749 7.30602,-14.18818 19.58594,-20.52675 37.90077,-19.5634 36.68667,1.9297 57.68755,44.38402 40.33141,81.53199 -7.93296,16.97922 -27.56718,32.49698 -46.69407,36.90434 -3.47854,0.80156 -12.25819,1.47293 -19.51031,1.49194 -44.37307,0.11634 -79.3984,-35.55856 -81.88537,-83.40402 -2.06545,-39.7362 21.72065,-77.72946 59.22592,-94.60086 15.21427,-6.844 26.94022,-9.20307 45.74462,-9.20307 21.06563,0 31.57565,2.49381 51.61879,12.24808 13.32486,6.48473 16.30174,8.6878 28.99815,21.4605 16.22492,16.32238 24.64992,30.4921 31.16637,52.41768 5.3273,17.92452 6.28563,42.6812 2.38192,61.53247 -10.49952,50.70284 -47.61265,89.01313 -100.0231,103.24955 -16.92266,4.59676 -49.00755,5.22315 -67.06897,1.30937 z"
       id="path1133"
       transform="scale(0.26458333)" />
    <path
       style="fill:#000000;fill-opacity:0.476923;stroke-width:1.41421"
       d="m 160.24807,597.95336 c 1.02089,-0.40853 2.24064,-0.35828 2.71058,0.11165 0.46993,0.46993 -0.36534,0.80418 -1.85616,0.74277 -1.64748,-0.0679 -1.98258,-0.40297 -0.85442,-0.85442 z"
       id="path1135"
       transform="scale(0.26458333)" />
    <path
       style="fill:#000000;fill-opacity:0.476923;stroke-width:1.41421"
       d="m 159.45257,603.63347 c -0.97227,-0.38891 -1.76776,-1.33473 -1.76776,-2.10183 0,-1.80795 5.75295,-0.93006 5.81894,0.88797 0.0604,1.66397 -1.64696,2.17555 -4.05118,1.21386 z"
       id="path1137"
       transform="scale(0.26458333)" />
    <path
       style="fill:#000000;fill-opacity:0.476923;stroke-width:1.41421"
       d=""
       id="path1139"
       transform="scale(0.26458333)" />
    <path
       style="fill:#000000;fill-opacity:0.476923;stroke-width:1.41421"
       d=""
       id="path1141"
       transform="scale(0.26458333)" />
    <path
       style="fill:#000000;fill-opacity:0.476923;stroke-width:1.41421"
       d=""
       id="path1143"
       transform="scale(0.26458333)" />
    <path
       style="fill:#000000;fill-opacity:0.476923;stroke-width:1.41421"
       d=""
       id="path1145"
       transform="scale(0.26458333)" />
  </g>
</svg>
