<?xml version="1.0" encoding="UTF-8" standalone="no"?>
<!-- Created with Inkscape (http://www.inkscape.org/) -->

<svg
   width="210mm"
   height="297mm"
   viewBox="0 0 210 297"
   version="1.1"
   id="svg5"
   inkscape:version="1.2.1 (9c6d41e410, 2022-07-14)"
   sodipodi:docname="zaba.svg"
   xmlns:inkscape="http://www.inkscape.org/namespaces/inkscape"
   xmlns:sodipodi="http://sodipodi.sourceforge.net/DTD/sodipodi-0.dtd"
   xmlns="http://www.w3.org/2000/svg"
   xmlns:svg="http://www.w3.org/2000/svg">
  <sodipodi:namedview
     id="namedview7"
     pagecolor="#505050"
     bordercolor="#ffffff"
     borderopacity="1"
     inkscape:showpageshadow="0"
     inkscape:pageopacity="0"
     inkscape:pagecheckerboard="1"
     inkscape:deskcolor="#505050"
     inkscape:document-units="mm"
     showgrid="false"
     inkscape:zoom="1.0318223"
     inkscape:cx="33.43599"
     inkscape:cy="592.15623"
     inkscape:window-width="1920"
     inkscape:window-height="1017"
     inkscape:window-x="-8"
     inkscape:window-y="-8"
     inkscape:window-maximized="1"
     inkscape:current-layer="layer1" />
  <defs
     id="defs2">
    <inkscape:path-effect
       effect="powerstroke"
       id="path-effect839"
       is_visible="true"
       lpeversion="1"
       offset_points="2.1891914,3.8463502"
       not_jump="true"
       sort_points="true"
       interpolator_type="CentripetalCatmullRom"
       interpolator_beta="0.75"
       start_linecap_type="round"
       linejoin_type="spiro"
       miter_limit="4"
       scale_width="1"
       end_linecap_type="round" />
    <inkscape:path-effect
       effect="simplify"
       id="path-effect837"
       is_visible="true"
       lpeversion="1"
       steps="1"
       threshold="0.0047745358"
       smooth_angles="0"
       helper_size="0"
       simplify_individual_paths="false"
       simplify_just_coalesce="false"
       step="1" />
    <inkscape:path-effect
       effect="powerstroke"
       id="path-effect832"
       is_visible="true"
       lpeversion="1"
       offset_points="0.41780632,3.8463502"
       not_jump="true"
       sort_points="true"
       interpolator_type="CentripetalCatmullRom"
       interpolator_beta="0.75"
       start_linecap_type="round"
       linejoin_type="spiro"
       miter_limit="4"
       scale_width="1"
       end_linecap_type="round" />
    <inkscape:path-effect
       effect="simplify"
       id="path-effect830"
       is_visible="true"
       lpeversion="1"
       steps="1"
       threshold="0.0047745358"
       smooth_angles="0"
       helper_size="0"
       simplify_individual_paths="false"
       simplify_just_coalesce="false"
       step="1" />
    <inkscape:path-effect
       effect="powerstroke"
       id="path-effect825"
       is_visible="true"
       lpeversion="1"
       offset_points="0.41321851,3.8463502"
       not_jump="true"
       sort_points="true"
       interpolator_type="CentripetalCatmullRom"
       interpolator_beta="0.75"
       start_linecap_type="round"
       linejoin_type="spiro"
       miter_limit="4"
       scale_width="1"
       end_linecap_type="round" />
    <inkscape:path-effect
       effect="simplify"
       id="path-effect823"
       is_visible="true"
       lpeversion="1"
       steps="1"
       threshold="0.0047745358"
       smooth_angles="0"
       helper_size="0"
       simplify_individual_paths="false"
       simplify_just_coalesce="false"
       step="1" />
  </defs>
  <g
     inkscape:label="Warstwa 1"
     inkscape:groupmode="layer"
     id="layer1">
    <path
       style="fill:#008000;stroke-width:0.264583"
       id="path163"
       sodipodi:type="arc"
       sodipodi:cx="105.26157"
       sodipodi:cy="122.22275"
       sodipodi:rx="34.233509"
       sodipodi:ry="23.03405"
       sodipodi:start="0"
       sodipodi:end="6.2830422"
       sodipodi:arc-type="slice"
       d="M 139.49508,122.22275 A 34.233509,23.03405 0 0 1 105.2628,145.2568 34.233509,23.03405 0 0 1 71.028065,122.2244 34.233509,23.03405 0 0 1 105.2579,99.188698 34.233509,23.03405 0 0 1 139.49508,122.21945 l -34.23351,0.003 z" />
    <path
       style="fill:#008000;stroke-width:0.264583"
       id="path169"
       sodipodi:type="arc"
       sodipodi:cx="73.159103"
       sodipodi:cy="125.60516"
       sodipodi:rx="9.1325188"
       sodipodi:ry="7.2616262"
       sodipodi:start="0"
       sodipodi:end="6.2830422"
       sodipodi:arc-type="slice"
       d="m 82.291622,125.60516 a 9.1325188,7.2616262 0 0 1 -9.132192,7.26163 9.1325188,7.2616262 0 0 1 -9.132845,-7.26111 9.1325188,7.2616262 0 0 1 9.131538,-7.26214 9.1325188,7.2616262 0 0 1 9.133499,7.26058 l -9.132519,0.001 z" />
    <path
       style="fill:#008000;stroke-width:0.264583"
       id="path173"
       sodipodi:type="arc"
       sodipodi:cx="138.81668"
       sodipodi:cy="127.19668"
       sodipodi:rx="8.3924885"
       sodipodi:ry="6.1923146"
       sodipodi:start="0"
       sodipodi:end="6.2830422"
       sodipodi:arc-type="slice"
       d="m 147.20917,127.19668 a 8.3924885,6.1923146 0 0 1 -8.39219,6.19231 8.3924885,6.1923146 0 0 1 -8.39279,-6.19187 8.3924885,6.1923146 0 0 1 8.39159,-6.19276 8.3924885,6.1923146 0 0 1 8.39339,6.19143 l -8.39249,8.9e-4 z" />
    <rect
       style="fill:#008080;stroke-width:0.264583"
       id="rect175"
       width="26.756924"
       height="24.778828"
       x="92.467514"
       y="141.86755" />
    <path
       style="fill:#008000;stroke-width:0.264583"
       id="path235"
       sodipodi:type="arc"
       sodipodi:cx="87.730812"
       sodipodi:cy="162.41864"
       sodipodi:rx="8.0994577"
       sodipodi:ry="6.1700501"
       sodipodi:start="0"
       sodipodi:end="6.2830422"
       sodipodi:arc-type="slice"
       d="m 95.83027,162.41864 a 8.0994577,6.1700501 0 0 1 -8.099168,6.17005 8.0994577,6.1700501 0 0 1 -8.099748,-6.16961 8.0994577,6.1700501 0 0 1 8.098589,-6.17049 8.0994577,6.1700501 0 0 1 8.100327,6.16917 l -8.099458,8.8e-4 z" />
    <path
       style="fill:#008000;stroke-width:0.264583"
       id="path237"
       sodipodi:type="arc"
       sodipodi:cx="121.92901"
       sodipodi:cy="162.23666"
       sodipodi:rx="7.0627632"
       sodipodi:ry="6.2475734"
       sodipodi:start="0"
       sodipodi:end="6.2830422"
       sodipodi:arc-type="slice"
       d="m 128.99177,162.23666 a 7.0627632,6.2475734 0 0 1 -7.06251,6.24758 7.0627632,6.2475734 0 0 1 -7.06301,-6.24713 7.0627632,6.2475734 0 0 1 7.062,-6.24802 7.0627632,6.2475734 0 0 1 7.06352,6.24668 l -7.06276,8.9e-4 z" />
    <path
       style="fill:#00ff00;stroke-width:0.264583"
       id="path239"
       sodipodi:type="arc"
       sodipodi:cx="79.167412"
       sodipodi:cy="167.32982"
       sodipodi:rx="7.5417376"
       sodipodi:ry="2.5128889"
       sodipodi:start="0"
       sodipodi:end="6.2830422"
       sodipodi:arc-type="slice"
       d="m 86.709149,167.32982 a 7.5417376,2.5128889 0 0 1 -7.541467,2.51289 7.5417376,2.5128889 0 0 1 -7.542008,-2.51271 7.5417376,2.5128889 0 0 1 7.540928,-2.51307 7.5417376,2.5128889 0 0 1 7.542547,2.51253 l -7.541737,3.6e-4 z" />
    <path
       style="fill:#00ff00;stroke-width:0.264583"
       id="path241"
       sodipodi:type="arc"
       sodipodi:cx="128.15863"
       sodipodi:cy="168.27887"
       sodipodi:rx="7.9245801"
       sodipodi:ry="2.1211984"
       sodipodi:start="0"
       sodipodi:end="6.2830422"
       sodipodi:arc-type="slice"
       d="m 136.08321,168.27887 a 7.9245801,2.1211984 0 0 1 -7.9243,2.1212 7.9245801,2.1211984 0 0 1 -7.92486,-2.12105 7.9245801,2.1211984 0 0 1 7.92373,-2.12135 7.9245801,2.1211984 0 0 1 7.92543,2.1209 l -7.92458,3e-4 z" />
    <path
       style="fill:#008000;stroke-width:0.264583"
       id="path295"
       sodipodi:type="arc"
       sodipodi:cx="96.420494"
       sodipodi:cy="156.16679"
       sodipodi:rx="5.3682241"
       sodipodi:ry="14.499511"
       sodipodi:start="0"
       sodipodi:end="6.2830422"
       sodipodi:arc-type="slice"
       d="m 101.78872,156.16679 a 5.3682241,14.499511 0 0 1 -5.368034,14.49951 5.3682241,14.499511 0 0 1 -5.368416,-14.49847 5.3682241,14.499511 0 0 1 5.367648,-14.50055 5.3682241,14.499511 0 0 1 5.368802,14.49744 l -5.368226,0.002 z" />
    <path
       style="fill:#008000;stroke-width:0.264583"
       id="path297"
       sodipodi:type="arc"
       sodipodi:cx="117.83089"
       sodipodi:cy="156.8992"
       sodipodi:rx="5.1519837"
       sodipodi:ry="14.036289"
       sodipodi:start="0"
       sodipodi:end="6.2830422"
       sodipodi:arc-type="slice"
       d="m 122.98287,156.8992 a 5.1519837,14.036289 0 0 1 -5.1518,14.03629 5.1519837,14.036289 0 0 1 -5.15217,-14.03529 5.1519837,14.036289 0 0 1 5.15143,-14.03729 5.1519837,14.036289 0 0 1 5.15254,14.03428 l -5.15198,0.002 z" />
    <path
       style="fill:#f9f9f9;stroke-width:0.264583"
       id="path351"
       sodipodi:type="arc"
       sodipodi:cx="93.966843"
       sodipodi:cy="104.5155"
       sodipodi:rx="5.7038965"
       sodipodi:ry="11.418585"
       sodipodi:start="0"
       sodipodi:end="6.2830422"
       sodipodi:arc-type="slice"
       d="m 99.670739,104.5155 a 5.7038965,11.418585 0 0 1 -5.703692,11.41859 5.7038965,11.418585 0 0 1 -5.704101,-11.41777 5.7038965,11.418585 0 0 1 5.703284,-11.419402 5.7038965,11.418585 0 0 1 5.704509,11.416952 l -5.703896,0.002 z" />
    <path
       style="fill:#f9f9f9;stroke-width:0.264583"
       id="path353"
       sodipodi:type="arc"
       sodipodi:cx="119.86205"
       sodipodi:cy="104.69326"
       sodipodi:rx="6.6416545"
       sodipodi:ry="11.278058"
       sodipodi:start="0"
       sodipodi:end="6.1534633"
       sodipodi:arc-type="arc"
       d="m 126.50371,104.69326 a 6.6416545,11.278058 0 0 1 -6.4263,11.27213 6.6416545,11.278058 0 0 1 -6.84305,-10.54114 6.6416545,11.278058 0 0 1 5.98254,-11.955713 6.6416545,11.278058 0 0 1 7.231,9.765813"
       sodipodi:open="true" />
    <path
       style="fill:#000080;stroke-width:0.264583"
       id="path407"
       sodipodi:type="arc"
       sodipodi:cx="93.58931"
       sodipodi:cy="103.84084"
       sodipodi:rx="2.0531318"
       sodipodi:ry="3.3986433"
       sodipodi:start="0"
       sodipodi:end="6.1534633"
       sodipodi:open="true"
       sodipodi:arc-type="arc"
       d="m 95.642442,103.84084 a 2.0531318,3.3986433 0 0 1 -1.98656,3.39686 2.0531318,3.3986433 0 0 1 -2.115387,-3.17657 2.0531318,3.3986433 0 0 1 1.849377,-3.60286 2.0531318,3.3986433 0 0 1 2.235319,2.94293" />
    <path
       style="fill:#000080;stroke-width:0.264583"
       id="path409"
       sodipodi:type="arc"
       sodipodi:cx="119.63354"
       sodipodi:cy="104.75172"
       sodipodi:rx="2.0597942"
       sodipodi:ry="3.1745143"
       sodipodi:start="0"
       sodipodi:end="6.1534633"
       sodipodi:open="true"
       sodipodi:arc-type="arc"
       d="m 121.69333,104.75172 a 2.0597942,3.1745143 0 0 1 -1.993,3.17284 2.0597942,3.1745143 0 0 1 -2.12226,-2.96709 2.0597942,3.1745143 0 0 1 1.85538,-3.36526 2.0597942,3.1745143 0 0 1 2.24257,2.74886" />
    <path
       style="fill:#000000;stroke-width:0.264583"
       id="path465"
       sodipodi:type="arc"
       sodipodi:cx="83.668709"
       sodipodi:cy="127.88212"
       sodipodi:rx="2.9105387"
       sodipodi:ry="3.1872506"
       sodipodi:start="0"
       sodipodi:end="6.2830422"
       sodipodi:arc-type="slice"
       d="m 86.579247,127.88212 a 2.9105387,3.1872506 0 0 1 -2.910434,3.18725 2.9105387,3.1872506 0 0 1 -2.910643,-3.18702 2.9105387,3.1872506 0 0 1 2.910226,-3.18748 2.9105387,3.1872506 0 0 1 2.910851,3.18679 l -2.910538,4.6e-4 z" />
    <path
       style="fill:#000000;stroke-width:0.264583"
       id="path467"
       sodipodi:type="arc"
       sodipodi:cx="127.50544"
       sodipodi:cy="128.20563"
       sodipodi:rx="3.058635"
       sodipodi:ry="2.6356835"
       sodipodi:start="0"
       sodipodi:end="6.2830422"
       sodipodi:arc-type="slice"
       d="m 130.56407,128.20563 a 3.058635,2.6356835 0 0 1 -3.05852,2.63568 3.058635,2.6356835 0 0 1 -3.05875,-2.63549 3.058635,2.6356835 0 0 1 3.05831,-2.63588 3.058635,2.6356835 0 0 1 3.05896,2.63531 l -3.05863,3.8e-4 z" />
    <path
       style="fill:#000000;stroke-width:0.264583"
       d="m 128.47379,130.96379 c -0.47742,-0.007 -0.70309,0.65879 -1.10631,0.79215 -0.13408,0.0443 -0.30559,-0.036 -0.44773,-0.0121 -0.24319,0.0409 -0.86608,0.12746 -1.08273,0.27198 -0.62482,0.41678 -1.2296,0.89175 -1.87251,1.29342 -0.38247,0.23895 -0.90453,0.40573 -1.30064,0.60269 -0.22253,0.11065 -0.41942,0.27102 -0.64772,0.36919 -0.16887,0.0726 -0.37329,0.0224 -0.54396,0.0907 -0.25973,0.10389 -0.55504,0.36334 -0.82725,0.46206 -1.18946,0.4314 -1.60108,0.13375 -2.87146,0.29799 -0.34578,0.0447 -0.65729,0.23528 -0.99427,0.32475 -0.48522,0.12884 -1.01097,0.18525 -1.49474,0.27919 -0.22455,0.0436 -0.43516,0.15058 -0.66183,0.18132 -0.85453,0.11586 -1.85739,-0.16711 -2.6929,0 -0.79515,0.15903 -1.63692,0.0907 -2.45506,0.0907 -1.20233,0 -2.40466,0 -3.60698,0 -1.55639,0 -3.1343,0.0677 -4.68693,0 -0.33098,-0.0145 -0.65602,-0.0961 -0.98617,-0.12361 -0.16436,-0.0137 -0.334288,0.0379 -0.494798,0 -0.10604,-0.0251 -0.17495,-0.13176 -0.27198,-0.18132 -0.13098,-0.0669 -0.29988,0.0406 -0.44125,0 -0.10684,-0.0307 -0.1708,-0.15674 -0.27883,-0.18296 -0.29793,-0.0723 -0.61385,-0.042 -0.91358,-0.10655 -0.21189,-0.0456 -0.3976,-0.18539 -0.61129,-0.22164 -0.22842,-0.0388 -0.46616,0.0358 -0.69505,0 -0.44458,-0.0696 -0.904872,-0.36139 -1.340003,-0.47225 -0.236948,-0.0604 -0.490186,-0.0449 -0.724511,-0.1148 -1.180328,-0.52556 -0.194244,-0.1529 -1.274355,-0.40973 -0.219729,-0.0523 -0.436444,-0.11768 -0.650209,-0.19058 -0.09058,-0.0309 -0.190894,-0.0422 -0.271227,-0.0942 -0.01564,-0.0101 0.01842,-0.0531 0,-0.0559 -0.118123,-0.0184 -0.245006,0.0371 -0.358653,0 -0.202451,-0.0661 -0.36308,-0.2291 -0.563509,-0.30111 -0.256821,-0.0923 -0.642747,0.0533 -0.909238,0 -0.08382,-0.0168 -0.0984,-0.16059 -0.181319,-0.18132 -0.08795,-0.022 -0.183081,0.0178 -0.271979,0 -0.261223,-0.0522 -0.494789,-0.1998 -0.750221,-0.27544 -0.497226,-0.14723 -1.29849,-0.14826 -1.728515,-0.36834 -0.186309,-0.0953 -0.582668,-0.31196 -0.731083,-0.45914 -0.04658,-0.0462 -0.0422,-0.12921 -0.08831,-0.17587 -0.02003,-0.0203 -0.05952,0.0117 -0.08551,0 -0.100457,-0.0452 -0.150283,-0.16156 -0.232825,-0.23449 -0.21893,-0.19346 -0.459526,-0.36293 -0.66693,-0.56871 -0.07942,-0.0788 -0.115472,-0.19269 -0.187116,-0.27862 -0.09066,-0.0907 -0.181319,-0.18132 -0.271979,-0.27198 -0.02604,0 -0.05847,0.0171 -0.07811,0 -0.03375,-0.0294 0,-0.0895 0,-0.13419 0,-0.26543 -0.04007,-0.567 0,-0.83012 0.113599,-0.74601 0.02458,-0.0162 0.271979,-0.63462 0.02244,-0.0561 -0.02458,-0.1261 0,-0.18132 0.01095,-0.0246 0.05381,0 0.08072,0 0.458259,0 -0.191127,-0.0211 0.71019,0.88343 0.477691,0.47941 1.166947,0.90746 1.736605,1.30403 0.15303,0.10653 -0.182139,-0.24481 0.118325,0 0.13253,0.10798 0.230835,0.25377 0.362638,0.36263 0.143835,0.11881 0.279381,0.0778 0.412517,0.14575 0.490551,0.25048 0.983975,0.58271 1.532199,0.75529 0.445101,0.14012 0.939081,-0.0261 1.354291,0.10361 0.0826,0.0258 0.125421,0.17112 0.205423,0.20541 0.363773,0.15592 0.960816,0.4153 1.304864,0.50632 0.38472,0.10179 1.240909,-0.005 1.531646,0.0942 0.386342,0.13141 0.996785,0.37296 1.383785,0.44949 0.14987,0.0296 0.30758,-0.0249 0.45831,0 0.0913,0.0151 0.39059,0.25613 0.44606,0.26987 0.41679,0.37993 0.90347,0.0439 1.34563,0.13107 0.0999,0.0197 0.15837,0.22606 0.25647,0.25647 0.24002,0.0744 0.50595,-0.0411 0.75384,0 0.19662,0.0326 0.37339,0.14196 0.56651,0.19124 0.0859,0.0219 0.184188,-0.0341 0.266078,0 0.0753,0.0313 0.16478,0.0222 0.23752,0.0592 0.13923,0.0708 0.22888,0.22553 0.37482,0.28116 0.19579,0.0746 0.41871,-0.0654 0.60884,0 0.59315,0.20417 0.12574,0.21029 0.8264,0.27461 0.35659,0.0327 0.83947,-0.0885 1.19346,0 0.0829,0.0207 0.10704,0.13902 0.18132,0.18132 0.17706,0.10082 2.12894,0 2.65519,0 0.55368,0 1.10736,0 1.66103,0 0.0749,0 0.726,0.059 0.90293,0 0.1426,-0.0475 0.27903,-0.21334 0.43788,-0.25705 0.2971,-0.0818 0.61771,-0.0308 0.91998,-0.0907 0.32448,-0.0643 0.69505,-0.15124 0.99294,-0.27198 0.27347,-0.11084 -0.36012,-0.0324 0.23389,-0.14322 0.0908,-0.0169 0.18469,0 0.27703,0 0.0907,-0.0302 0.17927,-0.0675 0.27198,-0.0907 0.14585,-0.0365 0.30185,0.0187 0.45102,0 0.33387,-0.0419 0.66661,-0.11519 0.99725,-0.18132 0.25263,-0.0505 0.57813,0.0832 0.82064,0 0.13255,-0.0454 0.23812,-0.15918 0.37468,-0.19062 0.14725,-0.0339 0.3031,0.0165 0.45329,0 0.12671,-0.0139 0.24573,-0.07 0.37152,-0.0907 0.31803,-0.0522 1.01686,0.11953 1.25621,0 0.0967,-0.0483 0.1693,-0.14007 0.2697,-0.18017 0.0561,-0.0224 0.12168,0.01 0.18132,0 0.34993,-0.0574 0.69121,-0.16604 1.02156,-0.27552 0.0287,-0.01 0.0604,0 0.0907,0 0.0554,0 0.11371,0.0175 0.16633,0 0.11474,-0.0381 0.24112,-0.22612 0.3546,-0.26394 0.20135,-0.0671 0.61122,0 0.81166,0 0.43186,0 1.13135,0.13792 1.53426,0 0.0187,-0.006 0.0279,-0.0279 0.0418,-0.0418 0.0555,-0.0278 0.10562,-0.0717 0.16663,-0.0833 0.47022,-0.0893 0.9577,0.046 1.42954,-0.0907 0.31384,-0.0909 0.73185,-0.21748 1.03232,-0.42 0.13963,-0.0941 0.22248,-0.25616 0.35719,-0.35719 0.0541,-0.0405 0.13353,-0.0429 0.18132,-0.0907 0.0478,-0.0478 0.0429,-0.13351 0.0906,-0.18128 0.34891,-0.34889 0.88879,-0.53354 1.28174,-0.82218 0.0581,-0.0427 0.24017,-0.26131 0.33338,-0.29099 0.11762,-0.0374 0.27463,0.0315 0.39418,0 0.19838,-0.0522 0.36014,-0.19866 0.55046,-0.27526 0.12756,-0.0514 0.39248,0 0.52309,0"
       id="path667" />
    <path
       style="fill:#81ffa4;fill-opacity:0.476923;stroke-width:0.969159"
       d="m 379.4258,628.99509 c 0,-0.26058 0.85654,-3.64052 1.90343,-7.51098 5.30981,-19.63109 5.08632,-45.01022 -0.56825,-64.53002 -2.99247,-10.33014 -5.22359,-14.63733 -9.54966,-18.43566 -6.23014,-5.47014 -12.27489,-3.61723 -18.08442,5.54345 -2.73279,4.30915 -2.77588,4.33265 -2.77588,1.51452 0,-2.76663 -0.33292,-2.97481 -9.93388,-6.21182 -11.94806,-4.02834 -27.33997,-11.67811 -36.31472,-18.04837 -3.61381,-2.56508 -9.9134,-8.06411 -13.99908,-12.22007 l -7.42851,-7.55629 h -6.36165 c -18.31742,0 -33.53882,-12.16065 -33.53882,-26.79477 0,-11.71915 9.48744,-22.05098 23.48551,-25.57573 3.96808,-0.99918 4.4708,-1.46378 5.55619,-5.13484 5.71296,-19.32271 25.11573,-39.43751 49.94477,-51.77764 12.56657,-6.24564 11.60766,-6.64303 11.76724,4.87656 0.487,35.15659 20.59642,53.73709 34.98518,32.32526 6.6115,-9.83853 10.03458,-28.23553 8.0839,-43.4461 -0.61868,-4.82421 -0.86909,-9.02706 -0.55648,-9.33967 1.19223,-1.19223 31.93327,-1.30748 42.58899,-0.15967 l 11.09967,1.19563 -0.68049,3.03907 c -0.37428,1.67149 -0.68051,8.92671 -0.68051,16.12271 0,11.19657 0.32676,14.02971 2.26544,19.64296 4.5626,13.21043 12.08129,21.08973 20.81571,21.81405 8.45289,0.70098 15.98217,-4.45423 21.06935,-14.42593 2.82176,-5.5311 5.7612,-17.67114 5.7612,-23.79405 0,-2.84644 0.32709,-5.17045 0.72687,-5.16446 1.57387,0.0236 14.01399,8.51251 19.80422,13.51409 14.2007,12.26655 23.34562,26.61516 26.59238,41.72413 1.29875,6.04384 2.03186,7.74624 3.33577,7.74624 3.92072,0 14.51427,4.11989 18.58418,7.2275 14.95857,11.42172 8.99701,30.87002 -11.31207,36.90317 -4.86984,1.44667 -16.55929,1.76256 -20.85676,0.56362 -2.04738,-0.57119 -3.45841,0.41911 -10.19317,7.15387 -12.07344,12.07344 -25.75692,20.57679 -44.54267,27.68026 -7.62838,2.88453 -10.12451,3.44838 -12.04057,2.7199 -10.6024,-4.03103 -20.43814,14.43975 -22.26076,41.80405 -0.9145,13.73009 0.13239,30.0205 2.56914,39.97781 l 1.83807,7.51098 h -25.54942 c -14.0522,0 -25.54944,-0.21319 -25.54944,-0.47376 z m 58.14955,-115.8928 c 2.39866,-0.52373 7.48897,-1.35197 11.31179,-1.84054 3.82282,-0.48859 7.74791,-1.30469 8.72243,-1.81357 0.97452,-0.50888 3.6702,-1.71064 5.99039,-2.67058 2.3202,-0.95993 6.2439,-3.18531 8.71933,-4.94528 2.47545,-1.75997 5.59696,-3.19995 6.9367,-3.19995 1.33975,0 3.61175,-1.0903 5.04888,-2.4229 1.43715,-1.33259 3.02938,-2.42289 3.5383,-2.42289 0.50892,0 2.05437,-1.34183 3.43436,-2.98185 3.68193,-4.37572 3.40997,-8.91013 -0.7861,-13.1062 -2.80249,-2.80249 -3.96884,-3.29514 -7.8014,-3.29514 -5.95675,0 -10.04124,2.23107 -11.80278,6.44701 -1.9125,4.57727 -0.34207,9.47714 3.85834,12.0384 1.67742,1.02283 2.61374,1.86319 2.0807,1.86748 -0.53304,0.004 -3.36302,1.82259 -6.28885,4.04068 -4.95512,3.75649 -5.81858,4.05877 -12.59907,4.41061 -4.00366,0.20775 -9.89611,0.9807 -13.09433,1.71768 -3.19823,0.73697 -9.74005,1.8526 -14.53739,2.47917 -4.79734,0.62658 -11.33916,1.79792 -14.53738,2.60298 -7.65252,1.92632 -26.16371,1.21558 -36.82805,-1.41401 -4.2643,-1.05148 -11.24225,-2.65248 -15.50655,-3.55778 -4.2643,-0.9053 -9.49776,-2.08669 -11.62991,-2.62531 -2.13215,-0.53862 -5.42537,-1.31652 -7.31827,-1.72866 -3.87364,-0.84343 -11.76781,-4.92686 -15.75384,-8.14903 -2.40688,-1.94564 -2.55739,-2.4386 -1.67211,-5.4767 1.08231,-3.71428 0.0878,-8.83789 -2.40327,-12.38183 -2.36508,-3.36465 -8.01815,-4.66546 -12.37111,-2.84668 -12.57557,5.25441 -7.9797,25.3889 5.38603,23.59618 3.56334,-0.47794 4.37003,-0.15835 8.27384,3.27793 2.37905,2.09412 4.98903,3.8075 5.79995,3.8075 0.81092,0 3.69334,0.62979 6.40538,1.39952 16.21087,4.60102 24.09585,6.66667 30.02646,7.86613 3.6748,0.74323 6.90937,1.57924 7.18793,1.85779 0.92399,0.92398 57.76828,0.43954 62.2096,-0.53016 z"
       id="path843"
       transform="scale(0.26458333)" />
    <path
       style="fill:#000000;fill-opacity:0.476923;stroke-width:0.969159"
       d="m 311.02285,492.92842 c -8.29513,-5.05837 -5.65292,-19.08902 3.95387,-20.9958 6.64933,-1.31977 13.67944,7.92004 11.12929,14.62745 -0.85202,2.24098 -1.2467,2.51608 -1.97793,1.37871 -0.80005,-1.24441 -1.03204,-1.24033 -1.86783,0.0328 -0.52487,0.79956 -0.961,2.38835 -0.96916,3.53066 -0.026,3.63637 -5.41606,4.38499 -10.26824,1.42614 z"
       id="path914"
       transform="scale(0.26458333)" />
  </g>
</svg>
